<svg width="40" height="41" viewBox="0 0 40 41" fill="none" xmlns="http://www.w3.org/2000/svg">
<path fill-rule="evenodd" clip-rule="evenodd" d="M30.4687 0.5C36.25 0.5 40 4.25 40 10.0313V30.9687C40 36.75 36.25 40.5 30.4687 40.5H9.53127C3.75 40.5 0 36.75 0 30.9687V10.0313C0 4.25 3.75 0.5 9.53127 0.5H30.4687Z" fill="#F15044"/>
<path fill-rule="evenodd" clip-rule="evenodd" d="M21.27 30.824H8L9.657 17.606L20.813 10.5L30.55 22.514L30.63 22.996L20.843 11.725L20.873 13.049L30.708 23.502L30.788 24.012L20.903 14.354L20.933 15.797L30.837 24.574L30.917 25.086L20.972 17.097L21.002 18.449L31.026 25.649L31.106 26.162L21.03 19.76L21.06 21L31.144 26.612L31.224 27.125L21.1 22.3L21.13 23.652L31.363 27.698L31.442 28.21L21.17 24.953L21.2 26.397L31.522 28.784L31.602 29.296L21.229 27.698L21.259 29.019L31.67 29.808L31.75 30.562L21.269 30.824H21.27Z" fill="white"/>
</svg>
