<svg width="40" height="41" viewBox="0 0 40 41" fill="none" xmlns="http://www.w3.org/2000/svg">
<path fill-rule="evenodd" clip-rule="evenodd" d="M30.4687 0.5C36.25 0.5 40 4.25 40 10.0313V30.9687C40 36.75 36.25 40.5 30.4687 40.5H9.53127C3.75 40.5 0 36.75 0 30.9687V10.0313C0 4.25 3.75 0.5 9.53127 0.5H30.4687Z" fill="#000F36"/>
<mask id="path-2-outside-1_67_886" maskUnits="userSpaceOnUse" x="0.411662" y="4.60072" width="38.6518" height="31.2536" fill="black">
<rect fill="white" x="0.411662" y="4.60072" width="38.6518" height="31.2536"/>
<path d="M8.91968 16.1848L9.15085 17.1509L6.01801 17.9006L5.78683 16.9345L8.91968 16.1848ZM7.8382 22.0467L6.45033 16.2468C6.36502 15.8903 6.36762 15.5759 6.45814 15.3038C6.55096 15.0311 6.70869 14.8061 6.93134 14.6288C7.15399 14.4515 7.41827 14.3262 7.7242 14.253C7.94041 14.2013 8.13661 14.1726 8.31278 14.1669C8.48894 14.1612 8.62058 14.1626 8.7077 14.1709L8.69045 15.1964C8.63369 15.193 8.56314 15.1928 8.47878 15.196C8.39387 15.1969 8.30196 15.2091 8.20305 15.2328C7.97073 15.2884 7.81975 15.3841 7.75012 15.5199C7.68223 15.6529 7.67306 15.8229 7.72259 16.0299L9.09065 21.747L7.8382 22.0467ZM11.166 21.2504L9.89783 15.9508L11.1089 15.661L11.3202 16.5443L11.3754 16.531C11.3988 16.202 11.508 15.9266 11.703 15.7048C11.8998 15.4802 12.1499 15.3316 12.4536 15.259C12.5226 15.2424 12.6005 15.2275 12.6872 15.214C12.7757 15.1977 12.8501 15.1884 12.9104 15.1861L13.1853 16.3351C13.128 16.3293 13.0402 16.3333 12.9219 16.347C12.8053 16.3579 12.6941 16.376 12.5883 16.4013C12.3606 16.4558 12.1677 16.5542 12.0097 16.6966C11.8534 16.8362 11.7441 17.0046 11.6819 17.2019C11.6196 17.3992 11.6155 17.6105 11.6694 17.8359L12.415 20.9515L11.166 21.2504ZM17.1709 19.9229C16.6396 20.05 16.1543 20.0494 15.715 19.9211C15.2775 19.7899 14.9065 19.5455 14.6021 19.1879C14.2971 18.828 14.0783 18.3709 13.9456 17.8165C13.8152 17.2714 13.8042 16.7682 13.9127 16.3069C14.0229 15.8428 14.238 15.4509 14.5579 15.1311C14.8772 14.8091 15.2899 14.5875 15.7959 14.4664C16.1226 14.3883 16.4434 14.3674 16.7586 14.4039C17.0755 14.4375 17.3716 14.5369 17.647 14.702C17.9247 14.8666 18.1685 15.1025 18.3782 15.4098C18.5873 15.7148 18.7475 16.0996 18.8587 16.5643L18.9503 16.9473L14.6065 17.9867L14.405 17.1448L17.5517 16.3919C17.4921 16.1532 17.3894 15.9528 17.2437 15.7907C17.0973 15.6263 16.9203 15.5118 16.7128 15.4472C16.5075 15.382 16.2852 15.3781 16.046 15.4353C15.7907 15.4964 15.5813 15.6122 15.4178 15.7826C15.2538 15.9508 15.1416 16.1478 15.0814 16.3738C15.0229 16.5969 15.0209 16.8272 15.0753 17.0647L15.2511 17.7996C15.3249 18.1078 15.4445 18.3589 15.6101 18.5527C15.7751 18.7443 15.9728 18.8745 16.2033 18.9433C16.4333 19.0099 16.6839 19.0107 16.9554 18.9458C17.1371 18.9023 17.2955 18.8376 17.4306 18.7518C17.5651 18.6637 17.6743 18.5561 17.7582 18.429C17.8421 18.3019 17.8938 18.157 17.9132 17.9943L19.1108 17.8464C19.1109 18.1722 19.035 18.4749 18.883 18.7544C18.7328 19.0311 18.513 19.271 18.2235 19.474C17.9335 19.6747 17.5827 19.8244 17.1709 19.9229ZM22.9303 18.5447C22.3989 18.6719 21.9136 18.6713 21.4744 18.5429C21.0368 18.4117 20.6659 18.1673 20.3614 17.8097C20.0564 17.4498 19.8376 16.9927 19.705 16.4384C19.5745 15.8932 19.5635 15.39 19.672 14.9288C19.7823 14.4646 19.9973 14.0727 20.3172 13.753C20.6366 13.4309 21.0493 13.2094 21.5553 13.0883C21.8819 13.0101 22.2028 12.9893 22.5179 13.0257C22.8348 13.0593 23.131 13.1587 23.4064 13.3238C23.6841 13.4884 23.9278 13.7243 24.1375 14.0316C24.3467 14.3366 24.5069 14.7215 24.6181 15.1861L24.7097 15.5691L20.3658 16.6085L20.1644 15.7667L23.311 15.0137C23.2515 14.775 23.1488 14.5747 23.003 14.4126C22.8567 14.2482 22.6797 14.1337 22.4721 14.069C22.2668 14.0039 22.0446 13.9999 21.8054 14.0571C21.5501 14.1182 21.3406 14.234 21.1772 14.4044C21.0131 14.5726 20.901 14.7696 20.8408 14.9956C20.7823 15.2188 20.7802 15.4491 20.8346 15.6865L21.0105 16.4214C21.0842 16.7297 21.2039 16.9807 21.3694 17.1746C21.5344 17.3661 21.7322 17.4963 21.9627 17.5652C22.1926 17.6318 22.4433 17.6326 22.7147 17.5676C22.8964 17.5241 23.0548 17.4595 23.1899 17.3736C23.3245 17.2855 23.4337 17.1779 23.5176 17.0508C23.6015 16.9238 23.6531 16.7789 23.6726 16.6161L24.8701 16.4682C24.8703 16.794 24.7944 17.0967 24.6424 17.3763C24.4922 17.653 24.2723 17.8928 23.9829 18.0959C23.6929 18.2966 23.342 18.4462 22.9303 18.5447ZM9.15614 23.5147L10.847 30.5808L9.59802 30.8797L7.90715 23.8135L9.15614 23.5147ZM13.682 30.0155C13.3462 30.0959 13.0294 30.1084 12.7316 30.0532C12.4356 29.9952 12.1811 29.8664 11.968 29.6669C11.7572 29.4669 11.6102 29.1932 11.5271 28.8458C11.4556 28.5468 11.4516 28.2863 11.5152 28.0644C11.5788 27.8425 11.6921 27.65 11.8549 27.487C12.0178 27.324 12.2116 27.184 12.4365 27.0669C12.6632 26.947 12.902 26.8425 13.1531 26.7532C13.4559 26.6467 13.7009 26.5577 13.888 26.4862C14.0746 26.4123 14.205 26.3373 14.2792 26.2612C14.3552 26.1823 14.3788 26.083 14.3502 25.9634L14.3453 25.9427C14.2831 25.6827 14.1579 25.4999 13.9696 25.3942C13.7814 25.2884 13.5423 25.2702 13.2525 25.3396C12.9466 25.4128 12.7199 25.5376 12.5724 25.7139C12.4272 25.8897 12.3453 26.0759 12.3267 26.2725L11.1209 26.3859C11.1358 26.0419 11.2232 25.7364 11.3831 25.4696C11.5424 25.2004 11.7621 24.9752 12.0422 24.7939C12.3217 24.6103 12.6466 24.4741 13.0169 24.3855C13.2722 24.3244 13.5336 24.2935 13.8009 24.2928C14.0682 24.292 14.3231 24.3356 14.5654 24.4235C14.8072 24.5092 15.0194 24.6542 15.2021 24.8585C15.387 25.0623 15.5216 25.3402 15.6058 25.6921L16.4546 29.239L15.2539 29.5263L15.0797 28.7983L15.0383 28.8082C14.9976 28.9735 14.9236 29.1372 14.8165 29.299C14.711 29.458 14.5642 29.6013 14.3758 29.7291C14.1893 29.854 13.958 29.9494 13.682 30.0155ZM13.7867 29.0201C14.0374 28.9601 14.243 28.8587 14.4033 28.7157C14.5631 28.5705 14.6726 28.4032 14.7319 28.2139C14.7935 28.0241 14.8009 27.8314 14.7541 27.6359L14.6047 27.0114C14.5733 27.053 14.5137 27.0988 14.426 27.149C14.3406 27.1986 14.2429 27.2475 14.1328 27.2958C14.0228 27.344 13.9133 27.3896 13.8045 27.4327C13.6956 27.4758 13.6011 27.513 13.5211 27.5443C13.3408 27.6142 13.184 27.6955 13.0505 27.7882C12.9171 27.8809 12.8202 27.9892 12.7598 28.1131C12.699 28.2347 12.6878 28.376 12.7263 28.537C12.7813 28.767 12.9069 28.9206 13.1028 28.9977C13.2988 29.0748 13.5268 29.0823 13.7867 29.0201ZM18.2164 25.5343L18.9595 28.6396L17.7105 28.9384L16.4423 23.6388L17.6361 23.3532L17.8516 24.2537L17.9137 24.2388C17.9646 23.9129 18.1025 23.6306 18.3275 23.392C18.5548 23.1528 18.8663 22.9858 19.2619 22.8912C19.6276 22.8036 19.9649 22.8056 20.2738 22.8971C20.5849 22.988 20.8508 23.1639 21.0713 23.4249C21.2941 23.6853 21.455 24.0274 21.554 24.4511L22.3614 27.8255L21.1124 28.1244L20.3512 24.9432C20.2664 24.589 20.1081 24.3338 19.8762 24.1778C19.6466 24.0211 19.3708 23.9813 19.0488 24.0584C18.8302 24.1107 18.6474 24.2055 18.5003 24.3428C18.355 24.4773 18.2555 24.6458 18.2018 24.8484C18.1504 25.0503 18.1553 25.279 18.2164 25.5343ZM25.9676 27.072C25.4385 27.1986 24.9564 27.1912 24.5213 27.0497C24.0885 26.9076 23.7207 26.6564 23.4181 26.2959C23.1171 25.9326 22.9025 25.483 22.7743 24.9471C22.6455 24.4088 22.6353 23.9091 22.7438 23.4478C22.8518 22.9842 23.0668 22.5923 23.389 22.272C23.713 21.9489 24.1337 21.7254 24.6512 21.6015C25.0814 21.4986 25.481 21.4869 25.8502 21.5663C26.2212 21.6429 26.54 21.8013 26.8066 22.0415C27.0727 22.2794 27.2652 22.5859 27.3841 22.9612L26.1904 23.2468C26.081 23.0031 25.915 22.8178 25.6926 22.6911C25.4719 22.5615 25.2109 22.5328 24.9096 22.6049C24.6542 22.666 24.4465 22.7887 24.2863 22.9729C24.1256 23.1548 24.0217 23.3864 23.9747 23.6676C23.93 23.9482 23.9503 24.2668 24.0356 24.6233C24.122 24.9845 24.2492 25.2823 24.4172 25.5169C24.5847 25.7492 24.7806 25.9127 25.0051 26.0073C25.2314 26.0991 25.4744 26.1139 25.7344 26.0517C25.9184 26.0077 26.0746 25.9338 26.203 25.8301C26.3331 25.7236 26.4317 25.5918 26.4987 25.4347C26.5657 25.2776 26.5947 25.0992 26.5858 24.8995L27.7796 24.6139C27.8394 24.9959 27.8086 25.3547 27.687 25.6902C27.5649 26.0234 27.3589 26.3111 27.0691 26.5531C26.7787 26.7928 26.4115 26.9658 25.9676 27.072ZM31.6096 25.7219C31.0783 25.8491 30.593 25.8485 30.1537 25.7201C29.7162 25.5889 29.3452 25.3445 29.0408 24.9869C28.7358 24.627 28.5169 24.1699 28.3843 23.6156C28.2539 23.0704 28.2429 22.5672 28.3514 22.1059C28.4616 21.6418 28.6767 21.2499 28.9966 20.9302C29.3159 20.6081 29.7286 20.3866 30.2346 20.2655C30.5613 20.1873 30.8821 20.1665 31.1973 20.2029C31.5142 20.2365 31.8103 20.3359 32.0857 20.501C32.3634 20.6656 32.6071 20.9015 32.8169 21.2088C33.026 21.5138 33.1862 21.8987 33.2974 22.3633L33.389 22.7463L29.0452 23.7857L28.8437 22.9439L31.9903 22.1909C31.9308 21.9522 31.8281 21.7519 31.6823 21.5898C31.536 21.4254 31.359 21.3108 31.1515 21.2462C30.9462 21.181 30.7239 21.1771 30.4847 21.2343C30.2294 21.2954 30.02 21.4112 29.8565 21.5816C29.6924 21.7498 29.5803 21.9468 29.5201 22.1728C29.4616 22.396 29.4596 22.6263 29.514 22.8637L29.6898 23.5986C29.7636 23.9069 29.8832 24.1579 30.0488 24.3517C30.2138 24.5433 30.4115 24.6735 30.642 24.7424C30.8719 24.8089 31.1226 24.8098 31.394 24.7448C31.5758 24.7013 31.7342 24.6367 31.8693 24.5508C32.0038 24.4627 32.113 24.3551 32.1969 24.228C32.2808 24.101 32.3325 23.9561 32.3519 23.7933L33.5495 23.6454C33.5496 23.9712 33.4737 24.2739 33.3217 24.5535C33.1715 24.8302 32.9517 25.07 32.6622 25.2731C32.3722 25.4738 32.0213 25.6234 31.6096 25.7219Z"/>
</mask>
<path d="M8.91968 16.1848L9.15085 17.1509L6.01801 17.9006L5.78683 16.9345L8.91968 16.1848ZM7.8382 22.0467L6.45033 16.2468C6.36502 15.8903 6.36762 15.5759 6.45814 15.3038C6.55096 15.0311 6.70869 14.8061 6.93134 14.6288C7.15399 14.4515 7.41827 14.3262 7.7242 14.253C7.94041 14.2013 8.13661 14.1726 8.31278 14.1669C8.48894 14.1612 8.62058 14.1626 8.7077 14.1709L8.69045 15.1964C8.63369 15.193 8.56314 15.1928 8.47878 15.196C8.39387 15.1969 8.30196 15.2091 8.20305 15.2328C7.97073 15.2884 7.81975 15.3841 7.75012 15.5199C7.68223 15.6529 7.67306 15.8229 7.72259 16.0299L9.09065 21.747L7.8382 22.0467ZM11.166 21.2504L9.89783 15.9508L11.1089 15.661L11.3202 16.5443L11.3754 16.531C11.3988 16.202 11.508 15.9266 11.703 15.7048C11.8998 15.4802 12.1499 15.3316 12.4536 15.259C12.5226 15.2424 12.6005 15.2275 12.6872 15.214C12.7757 15.1977 12.8501 15.1884 12.9104 15.1861L13.1853 16.3351C13.128 16.3293 13.0402 16.3333 12.9219 16.347C12.8053 16.3579 12.6941 16.376 12.5883 16.4013C12.3606 16.4558 12.1677 16.5542 12.0097 16.6966C11.8534 16.8362 11.7441 17.0046 11.6819 17.2019C11.6196 17.3992 11.6155 17.6105 11.6694 17.8359L12.415 20.9515L11.166 21.2504ZM17.1709 19.9229C16.6396 20.05 16.1543 20.0494 15.715 19.9211C15.2775 19.7899 14.9065 19.5455 14.6021 19.1879C14.2971 18.828 14.0783 18.3709 13.9456 17.8165C13.8152 17.2714 13.8042 16.7682 13.9127 16.3069C14.0229 15.8428 14.238 15.4509 14.5579 15.1311C14.8772 14.8091 15.2899 14.5875 15.7959 14.4664C16.1226 14.3883 16.4434 14.3674 16.7586 14.4039C17.0755 14.4375 17.3716 14.5369 17.647 14.702C17.9247 14.8666 18.1685 15.1025 18.3782 15.4098C18.5873 15.7148 18.7475 16.0996 18.8587 16.5643L18.9503 16.9473L14.6065 17.9867L14.405 17.1448L17.5517 16.3919C17.4921 16.1532 17.3894 15.9528 17.2437 15.7907C17.0973 15.6263 16.9203 15.5118 16.7128 15.4472C16.5075 15.382 16.2852 15.3781 16.046 15.4353C15.7907 15.4964 15.5813 15.6122 15.4178 15.7826C15.2538 15.9508 15.1416 16.1478 15.0814 16.3738C15.0229 16.5969 15.0209 16.8272 15.0753 17.0647L15.2511 17.7996C15.3249 18.1078 15.4445 18.3589 15.6101 18.5527C15.7751 18.7443 15.9728 18.8745 16.2033 18.9433C16.4333 19.0099 16.6839 19.0107 16.9554 18.9458C17.1371 18.9023 17.2955 18.8376 17.4306 18.7518C17.5651 18.6637 17.6743 18.5561 17.7582 18.429C17.8421 18.3019 17.8938 18.157 17.9132 17.9943L19.1108 17.8464C19.1109 18.1722 19.035 18.4749 18.883 18.7544C18.7328 19.0311 18.513 19.271 18.2235 19.474C17.9335 19.6747 17.5827 19.8244 17.1709 19.9229ZM22.9303 18.5447C22.3989 18.6719 21.9136 18.6713 21.4744 18.5429C21.0368 18.4117 20.6659 18.1673 20.3614 17.8097C20.0564 17.4498 19.8376 16.9927 19.705 16.4384C19.5745 15.8932 19.5635 15.39 19.672 14.9288C19.7823 14.4646 19.9973 14.0727 20.3172 13.753C20.6366 13.4309 21.0493 13.2094 21.5553 13.0883C21.8819 13.0101 22.2028 12.9893 22.5179 13.0257C22.8348 13.0593 23.131 13.1587 23.4064 13.3238C23.6841 13.4884 23.9278 13.7243 24.1375 14.0316C24.3467 14.3366 24.5069 14.7215 24.6181 15.1861L24.7097 15.5691L20.3658 16.6085L20.1644 15.7667L23.311 15.0137C23.2515 14.775 23.1488 14.5747 23.003 14.4126C22.8567 14.2482 22.6797 14.1337 22.4721 14.069C22.2668 14.0039 22.0446 13.9999 21.8054 14.0571C21.5501 14.1182 21.3406 14.234 21.1772 14.4044C21.0131 14.5726 20.901 14.7696 20.8408 14.9956C20.7823 15.2188 20.7802 15.4491 20.8346 15.6865L21.0105 16.4214C21.0842 16.7297 21.2039 16.9807 21.3694 17.1746C21.5344 17.3661 21.7322 17.4963 21.9627 17.5652C22.1926 17.6318 22.4433 17.6326 22.7147 17.5676C22.8964 17.5241 23.0548 17.4595 23.1899 17.3736C23.3245 17.2855 23.4337 17.1779 23.5176 17.0508C23.6015 16.9238 23.6531 16.7789 23.6726 16.6161L24.8701 16.4682C24.8703 16.794 24.7944 17.0967 24.6424 17.3763C24.4922 17.653 24.2723 17.8928 23.9829 18.0959C23.6929 18.2966 23.342 18.4462 22.9303 18.5447ZM9.15614 23.5147L10.847 30.5808L9.59802 30.8797L7.90715 23.8135L9.15614 23.5147ZM13.682 30.0155C13.3462 30.0959 13.0294 30.1084 12.7316 30.0532C12.4356 29.9952 12.1811 29.8664 11.968 29.6669C11.7572 29.4669 11.6102 29.1932 11.5271 28.8458C11.4556 28.5468 11.4516 28.2863 11.5152 28.0644C11.5788 27.8425 11.6921 27.65 11.8549 27.487C12.0178 27.324 12.2116 27.184 12.4365 27.0669C12.6632 26.947 12.902 26.8425 13.1531 26.7532C13.4559 26.6467 13.7009 26.5577 13.888 26.4862C14.0746 26.4123 14.205 26.3373 14.2792 26.2612C14.3552 26.1823 14.3788 26.083 14.3502 25.9634L14.3453 25.9427C14.2831 25.6827 14.1579 25.4999 13.9696 25.3942C13.7814 25.2884 13.5423 25.2702 13.2525 25.3396C12.9466 25.4128 12.7199 25.5376 12.5724 25.7139C12.4272 25.8897 12.3453 26.0759 12.3267 26.2725L11.1209 26.3859C11.1358 26.0419 11.2232 25.7364 11.3831 25.4696C11.5424 25.2004 11.7621 24.9752 12.0422 24.7939C12.3217 24.6103 12.6466 24.4741 13.0169 24.3855C13.2722 24.3244 13.5336 24.2935 13.8009 24.2928C14.0682 24.292 14.3231 24.3356 14.5654 24.4235C14.8072 24.5092 15.0194 24.6542 15.2021 24.8585C15.387 25.0623 15.5216 25.3402 15.6058 25.6921L16.4546 29.239L15.2539 29.5263L15.0797 28.7983L15.0383 28.8082C14.9976 28.9735 14.9236 29.1372 14.8165 29.299C14.711 29.458 14.5642 29.6013 14.3758 29.7291C14.1893 29.854 13.958 29.9494 13.682 30.0155ZM13.7867 29.0201C14.0374 28.9601 14.243 28.8587 14.4033 28.7157C14.5631 28.5705 14.6726 28.4032 14.7319 28.2139C14.7935 28.0241 14.8009 27.8314 14.7541 27.6359L14.6047 27.0114C14.5733 27.053 14.5137 27.0988 14.426 27.149C14.3406 27.1986 14.2429 27.2475 14.1328 27.2958C14.0228 27.344 13.9133 27.3896 13.8045 27.4327C13.6956 27.4758 13.6011 27.513 13.5211 27.5443C13.3408 27.6142 13.184 27.6955 13.0505 27.7882C12.9171 27.8809 12.8202 27.9892 12.7598 28.1131C12.699 28.2347 12.6878 28.376 12.7263 28.537C12.7813 28.767 12.9069 28.9206 13.1028 28.9977C13.2988 29.0748 13.5268 29.0823 13.7867 29.0201ZM18.2164 25.5343L18.9595 28.6396L17.7105 28.9384L16.4423 23.6388L17.6361 23.3532L17.8516 24.2537L17.9137 24.2388C17.9646 23.9129 18.1025 23.6306 18.3275 23.392C18.5548 23.1528 18.8663 22.9858 19.2619 22.8912C19.6276 22.8036 19.9649 22.8056 20.2738 22.8971C20.5849 22.988 20.8508 23.1639 21.0713 23.4249C21.2941 23.6853 21.455 24.0274 21.554 24.4511L22.3614 27.8255L21.1124 28.1244L20.3512 24.9432C20.2664 24.589 20.1081 24.3338 19.8762 24.1778C19.6466 24.0211 19.3708 23.9813 19.0488 24.0584C18.8302 24.1107 18.6474 24.2055 18.5003 24.3428C18.355 24.4773 18.2555 24.6458 18.2018 24.8484C18.1504 25.0503 18.1553 25.279 18.2164 25.5343ZM25.9676 27.072C25.4385 27.1986 24.9564 27.1912 24.5213 27.0497C24.0885 26.9076 23.7207 26.6564 23.4181 26.2959C23.1171 25.9326 22.9025 25.483 22.7743 24.9471C22.6455 24.4088 22.6353 23.9091 22.7438 23.4478C22.8518 22.9842 23.0668 22.5923 23.389 22.272C23.713 21.9489 24.1337 21.7254 24.6512 21.6015C25.0814 21.4986 25.481 21.4869 25.8502 21.5663C26.2212 21.6429 26.54 21.8013 26.8066 22.0415C27.0727 22.2794 27.2652 22.5859 27.3841 22.9612L26.1904 23.2468C26.081 23.0031 25.915 22.8178 25.6926 22.6911C25.4719 22.5615 25.2109 22.5328 24.9096 22.6049C24.6542 22.666 24.4465 22.7887 24.2863 22.9729C24.1256 23.1548 24.0217 23.3864 23.9747 23.6676C23.93 23.9482 23.9503 24.2668 24.0356 24.6233C24.122 24.9845 24.2492 25.2823 24.4172 25.5169C24.5847 25.7492 24.7806 25.9127 25.0051 26.0073C25.2314 26.0991 25.4744 26.1139 25.7344 26.0517C25.9184 26.0077 26.0746 25.9338 26.203 25.8301C26.3331 25.7236 26.4317 25.5918 26.4987 25.4347C26.5657 25.2776 26.5947 25.0992 26.5858 24.8995L27.7796 24.6139C27.8394 24.9959 27.8086 25.3547 27.687 25.6902C27.5649 26.0234 27.3589 26.3111 27.0691 26.5531C26.7787 26.7928 26.4115 26.9658 25.9676 27.072ZM31.6096 25.7219C31.0783 25.8491 30.593 25.8485 30.1537 25.7201C29.7162 25.5889 29.3452 25.3445 29.0408 24.9869C28.7358 24.627 28.5169 24.1699 28.3843 23.6156C28.2539 23.0704 28.2429 22.5672 28.3514 22.1059C28.4616 21.6418 28.6767 21.2499 28.9966 20.9302C29.3159 20.6081 29.7286 20.3866 30.2346 20.2655C30.5613 20.1873 30.8821 20.1665 31.1973 20.2029C31.5142 20.2365 31.8103 20.3359 32.0857 20.501C32.3634 20.6656 32.6071 20.9015 32.8169 21.2088C33.026 21.5138 33.1862 21.8987 33.2974 22.3633L33.389 22.7463L29.0452 23.7857L28.8437 22.9439L31.9903 22.1909C31.9308 21.9522 31.8281 21.7519 31.6823 21.5898C31.536 21.4254 31.359 21.3108 31.1515 21.2462C30.9462 21.181 30.7239 21.1771 30.4847 21.2343C30.2294 21.2954 30.02 21.4112 29.8565 21.5816C29.6924 21.7498 29.5803 21.9468 29.5201 22.1728C29.4616 22.396 29.4596 22.6263 29.514 22.8637L29.6898 23.5986C29.7636 23.9069 29.8832 24.1579 30.0488 24.3517C30.2138 24.5433 30.4115 24.6735 30.642 24.7424C30.8719 24.8089 31.1226 24.8098 31.394 24.7448C31.5758 24.7013 31.7342 24.6367 31.8693 24.5508C32.0038 24.4627 32.113 24.3551 32.1969 24.228C32.2808 24.101 32.3325 23.9561 32.3519 23.7933L33.5495 23.6454C33.5496 23.9712 33.4737 24.2739 33.3217 24.5535C33.1715 24.8302 32.9517 25.07 32.6622 25.2731C32.3722 25.4738 32.0213 25.6234 31.6096 25.7219Z" fill="#1B1B1B"/>
<path d="M8.91968 16.1848L12.1583 15.4099C11.7303 13.6212 9.93335 12.5182 8.14469 12.9462L8.91968 16.1848ZM9.15085 17.1509L9.92583 20.3896C11.7145 19.9616 12.8175 18.1646 12.3895 16.3759L9.15085 17.1509ZM6.01801 17.9006L2.77936 18.6756C3.20737 20.4642 5.00433 21.5672 6.79299 21.1392L6.01801 17.9006ZM5.78683 16.9345L5.01185 13.6959C3.22319 14.1239 2.12017 15.9208 2.54818 17.7095L5.78683 16.9345ZM7.8382 22.0467L4.59955 22.8217C5.02756 24.6103 6.82452 25.7134 8.61318 25.2853L7.8382 22.0467ZM6.45814 15.3038L3.30567 14.2308C3.30317 14.2381 3.3007 14.2454 3.29826 14.2528L6.45814 15.3038ZM6.93134 14.6288L4.85687 12.0238L4.85687 12.0238L6.93134 14.6288ZM8.31278 14.1669L8.42003 17.4953L8.42004 17.4953L8.31278 14.1669ZM8.7077 14.1709L12.0373 14.2269C12.0665 12.4894 10.7548 11.0215 9.02498 10.856L8.7077 14.1709ZM8.69045 15.1964L8.48888 18.5204C9.39568 18.5754 10.2856 18.2575 10.9523 17.6405C11.6191 17.0234 12.0048 16.1607 12.0201 15.2524L8.69045 15.1964ZM8.47878 15.196L8.51263 18.5259C8.54295 18.5256 8.57326 18.5249 8.60355 18.5237L8.47878 15.196ZM7.75012 15.5199L4.78679 14.0006L4.78419 14.0057L7.75012 15.5199ZM9.09065 21.747L9.86563 24.9856C11.6543 24.5576 12.7573 22.7607 12.3293 20.972L9.09065 21.747ZM5.68103 16.9598L5.9122 17.9259L12.3895 16.3759L12.1583 15.4099L5.68103 16.9598ZM8.37587 13.9123L5.24303 14.6619L6.79299 21.1392L9.92583 20.3896L8.37587 13.9123ZM9.25666 17.1256L9.02549 16.1595L2.54818 17.7095L2.77936 18.6756L9.25666 17.1256ZM6.56182 20.1732L9.69466 19.4235L8.14469 12.9462L5.01185 13.6959L6.56182 20.1732ZM11.0768 21.2717L9.68898 15.4718L3.21168 17.0218L4.59955 22.8217L11.0768 21.2717ZM9.68898 15.4718C9.70851 15.5534 9.7712 15.8943 9.61801 16.3548L3.29826 14.2528C2.96404 15.2576 3.02152 16.2271 3.21168 17.0218L9.68898 15.4718ZM9.61061 16.3768C9.50071 16.6997 9.28803 17.009 9.00581 17.2338L4.85687 12.0238C4.12935 12.6031 3.6012 13.3625 3.30567 14.2308L9.61061 16.3768ZM9.00581 17.2338C8.80838 17.391 8.61722 17.4634 8.49918 17.4917L6.94921 11.0144C6.21933 11.189 5.4996 11.512 4.85687 12.0238L9.00581 17.2338ZM8.49918 17.4917C8.52195 17.4862 8.5269 17.486 8.51565 17.4877C8.50458 17.4893 8.4718 17.4936 8.42003 17.4953L8.20552 10.8385C7.75493 10.8531 7.33046 10.9231 6.94921 11.0144L8.49918 17.4917ZM8.42004 17.4953C8.44682 17.4944 8.46782 17.4939 8.48358 17.4937C8.49953 17.4935 8.508 17.4935 8.50999 17.4936C8.51236 17.4936 8.50404 17.4935 8.48698 17.4928C8.47815 17.4924 8.46575 17.4918 8.45021 17.4907C8.43476 17.4897 8.4146 17.4881 8.39041 17.4858L9.02498 10.856C8.71759 10.8265 8.41166 10.8319 8.20551 10.8385L8.42004 17.4953ZM5.37808 14.1149L5.36084 15.1404L12.0201 15.2524L12.0373 14.2269L5.37808 14.1149ZM8.89202 11.8724C8.68829 11.8601 8.50048 11.8628 8.354 11.8682L8.60355 18.5237C8.61015 18.5235 8.60439 18.5238 8.58839 18.5238C8.57337 18.5238 8.53864 18.5234 8.48888 18.5204L8.89202 11.8724ZM8.44492 11.8661C8.06702 11.8699 7.72373 11.9234 7.42807 11.9941L8.97803 18.4714C8.88019 18.4949 8.72071 18.5238 8.51263 18.5259L8.44492 11.8661ZM7.42807 11.9941C6.78202 12.1487 5.5 12.6095 4.7868 14.0006L10.7134 17.0392C10.1395 18.1586 9.15944 18.428 8.97803 18.4714L7.42807 11.9941ZM4.78419 14.0057C4.22889 15.0934 4.32727 16.1501 4.48394 16.8049L10.9612 15.2549C11.0188 15.4956 11.1356 16.2123 10.716 17.0341L4.78419 14.0057ZM4.48394 16.8049L5.85199 22.522L12.3293 20.972L10.9612 15.2549L4.48394 16.8049ZM8.31566 18.5083L7.06322 18.808L8.61318 25.2853L9.86563 24.9856L8.31566 18.5083ZM11.166 21.2504L7.92733 22.0254C8.35534 23.814 10.1523 24.917 11.941 24.489L11.166 21.2504ZM9.89783 15.9508L9.12285 12.7121C7.33419 13.1401 6.23117 14.9371 6.65918 16.7258L9.89783 15.9508ZM11.1089 15.661L14.3475 14.886C13.9195 13.0973 12.1225 11.9943 10.3339 12.4223L11.1089 15.661ZM11.3202 16.5443L8.08158 17.3192C8.50959 19.1079 10.3066 20.2109 12.0952 19.7829L11.3202 16.5443ZM11.3754 16.531L12.1504 19.7697C13.5634 19.4316 14.5941 18.2165 14.6971 16.7673L11.3754 16.531ZM11.703 15.7048L14.2038 17.9038L14.208 17.899L11.703 15.7048ZM12.6872 15.214L13.1979 18.5047C13.229 18.4999 13.26 18.4946 13.2909 18.4889L12.6872 15.214ZM12.9104 15.1861L16.149 14.4111C15.7796 12.8673 14.3718 11.7989 12.7856 11.8584L12.9104 15.1861ZM13.1853 16.3351L12.8533 19.6486C13.926 19.756 14.9843 19.3376 15.6935 18.5256C16.4026 17.7136 16.6748 16.6085 16.4239 15.5601L13.1853 16.3351ZM12.9219 16.347L13.231 19.6627C13.2559 19.6604 13.2807 19.6578 13.3054 19.655L12.9219 16.347ZM12.0097 16.6966L14.2275 19.1808C14.2312 19.1774 14.2349 19.1741 14.2387 19.1707L12.0097 16.6966ZM12.415 20.9515L13.19 24.1902C14.9786 23.7622 16.0816 21.9652 15.6536 20.1765L12.415 20.9515ZM14.4046 20.4754L13.1365 15.1758L6.65918 16.7258L7.92733 22.0254L14.4046 20.4754ZM10.6728 19.1894L11.8839 18.8996L10.3339 12.4223L9.12285 12.7121L10.6728 19.1894ZM7.87022 16.436L8.08158 17.3192L14.5589 15.7693L14.3475 14.886L7.87022 16.436ZM12.0952 19.7829L12.1504 19.7697L10.6005 13.2924L10.5452 13.3056L12.0952 19.7829ZM14.6971 16.7673C14.6874 16.9046 14.6549 17.0923 14.5705 17.3051C14.4846 17.5218 14.3598 17.7264 14.2038 17.9038L9.20221 13.5059C8.47026 14.3383 8.12244 15.3289 8.05374 16.2948L14.6971 16.7673ZM14.208 17.899C14.0813 18.0437 13.9234 18.1784 13.7391 18.2879C13.556 18.3967 13.3788 18.4617 13.2285 18.4976L11.6786 12.0203C10.7365 12.2457 9.87087 12.7425 9.19803 13.5107L14.208 17.899ZM13.2285 18.4976C13.2095 18.5022 13.1973 18.5046 13.1931 18.5054C13.1887 18.5062 13.1901 18.5059 13.1979 18.5047L12.1765 11.9233C12.0208 11.9475 11.8525 11.9787 11.6786 12.0203L13.2285 18.4976ZM13.2909 18.4889C13.2838 18.4902 13.2599 18.4945 13.222 18.4992C13.1855 18.5038 13.121 18.5107 13.0351 18.5139L12.7856 11.8584C12.5072 11.8688 12.2612 11.9063 12.0835 11.9391L13.2909 18.4889ZM9.6717 15.9611L9.94664 17.11L16.4239 15.5601L16.149 14.4111L9.6717 15.9611ZM13.5173 13.0216C13.0839 12.9782 12.6984 13.0205 12.5383 13.0391L13.3054 19.655C13.3124 19.6541 13.283 19.6579 13.2276 19.6604C13.1986 19.6617 13.1536 19.6631 13.0964 19.6624C13.0408 19.6618 12.957 19.6589 12.8533 19.6486L13.5173 13.0216ZM12.6127 13.0313C12.351 13.0557 12.0834 13.098 11.8133 13.1627L13.3633 19.64C13.3048 19.654 13.2596 19.6601 13.231 19.6627L12.6127 13.0313ZM11.8133 13.1627C11.1003 13.3333 10.3925 13.6714 9.78066 14.2226L14.2387 19.1707C13.943 19.4371 13.6208 19.5783 13.3633 19.64L11.8133 13.1627ZM9.79186 14.2125C9.19475 14.7456 8.75088 15.4239 8.50603 16.2001L14.8577 18.2036C14.7373 18.5853 14.512 18.9267 14.2275 19.1808L9.79186 14.2125ZM8.50603 16.2001C8.24106 17.0402 8.25374 17.871 8.43079 18.6109L14.9081 17.0609C14.9773 17.35 14.9982 17.7581 14.8577 18.2036L8.50603 16.2001ZM8.43079 18.6109L9.17633 21.7265L15.6536 20.1765L14.9081 17.0609L8.43079 18.6109ZM11.64 17.7129L10.391 18.0117L11.941 24.489L13.19 24.1902L11.64 17.7129ZM15.715 19.9211L14.7585 23.1108C14.766 23.1131 14.7735 23.1153 14.7811 23.1175L15.715 19.9211ZM14.6021 19.1879L12.0615 21.3408L12.0664 21.3466L14.6021 19.1879ZM13.9127 16.3069L10.6727 15.5373L10.6711 15.5445L13.9127 16.3069ZM14.5579 15.1311L16.912 17.4864C16.9155 17.4829 16.919 17.4794 16.9225 17.4759L14.5579 15.1311ZM16.7586 14.4039L16.3759 17.7119C16.3864 17.7131 16.3969 17.7143 16.4074 17.7154L16.7586 14.4039ZM17.647 14.702L15.9346 17.5581C15.9395 17.561 15.9444 17.5639 15.9493 17.5668L17.647 14.702ZM18.3782 15.4098L15.6276 17.287L15.6319 17.2932L18.3782 15.4098ZM18.9503 16.9473L19.7253 20.1859C21.514 19.7579 22.617 17.9609 22.189 16.1723L18.9503 16.9473ZM14.6065 17.9867L11.3678 18.7617C11.7958 20.5503 13.5928 21.6534 15.3814 21.2254L14.6065 17.9867ZM14.405 17.1448L13.63 13.9062C11.8414 14.3342 10.7383 16.1312 11.1664 17.9198L14.405 17.1448ZM17.5517 16.3919L18.3266 19.6305C19.191 19.4237 19.9368 18.8799 20.3981 18.1203C20.8593 17.3606 20.9978 16.4481 20.7827 15.5858L17.5517 16.3919ZM17.2437 15.7907L14.7563 18.0049C14.7601 18.0092 14.7639 18.0134 14.7677 18.0176L17.2437 15.7907ZM16.7128 15.4472L15.7051 18.6211C15.711 18.623 15.7169 18.6249 15.7229 18.6268L16.7128 15.4472ZM15.4178 15.7826L17.8014 18.1081C17.808 18.1014 17.8145 18.0946 17.821 18.0878L15.4178 15.7826ZM15.0814 16.3738L11.8636 15.5163L11.8601 15.5297L15.0814 16.3738ZM15.0753 17.0647L11.8293 17.8082C11.8317 17.8187 11.8341 17.8292 11.8366 17.8397L15.0753 17.0647ZM15.6101 18.5527L13.0778 20.7153C13.0809 20.7189 13.0839 20.7225 13.087 20.7261L15.6101 18.5527ZM16.2033 18.9433L15.2499 22.134C15.259 22.1367 15.2681 22.1394 15.2772 22.1421L16.2033 18.9433ZM17.4306 18.7518L19.2163 21.5626C19.2293 21.5544 19.2423 21.546 19.2552 21.5375L17.4306 18.7518ZM17.7582 18.429L20.5374 20.2636L17.7582 18.429ZM17.9132 17.9943L17.5049 14.6893C15.9844 14.8772 14.7882 16.0782 14.6066 17.5995L17.9132 17.9943ZM19.1108 17.8464L22.4409 17.8448C22.4404 16.8908 22.0308 15.9827 21.3159 15.3509C20.6009 14.7192 19.6493 14.4244 18.7025 14.5414L19.1108 17.8464ZM18.883 18.7544L15.9573 17.1639L15.9564 17.1656L18.883 18.7544ZM18.2235 19.474L20.1187 22.2122C20.1244 22.2083 20.1301 22.2043 20.1357 22.2004L18.2235 19.474ZM16.3959 16.6842C16.354 16.6943 16.3624 16.6877 16.4126 16.6877C16.4656 16.6878 16.5488 16.6954 16.649 16.7246L14.7811 23.1175C15.8755 23.4373 16.9604 23.3974 17.9459 23.1615L16.3959 16.6842ZM16.6715 16.7313C16.7541 16.7561 16.8481 16.7976 16.9406 16.8585C17.0325 16.919 17.0976 16.9821 17.1377 17.0292L12.0664 21.3466C12.7745 22.1783 13.6882 22.7899 14.7585 23.1108L16.6715 16.7313ZM17.1426 17.0349C17.1644 17.0607 17.181 17.0838 17.1929 17.1024C17.2047 17.1209 17.2109 17.1332 17.2129 17.1373C17.2166 17.1451 17.2025 17.118 17.1843 17.0416L10.707 18.5915C10.9361 19.549 11.3558 20.5081 12.0615 21.3408L17.1426 17.0349ZM17.1843 17.0416C17.168 16.9736 17.1686 16.9476 17.1688 16.9576C17.1689 16.9627 17.1689 16.9758 17.1669 16.9957C17.1649 17.0158 17.161 17.0407 17.1543 17.0694L10.6711 15.5445C10.4237 16.596 10.4776 17.6331 10.707 18.5915L17.1843 17.0416ZM17.1526 17.0765C17.1433 17.1156 17.1215 17.1841 17.0761 17.2669C17.03 17.3508 16.9726 17.4259 16.912 17.4864L12.2037 12.7759C11.423 13.5562 10.9174 14.5071 10.6727 15.5373L17.1526 17.0765ZM16.9225 17.4759C16.8421 17.557 16.757 17.6172 16.6821 17.6574C16.6098 17.6962 16.5662 17.7062 16.5709 17.7051L15.021 11.2278C14.0029 11.4714 13.0103 11.9624 12.1933 12.7863L16.9225 17.4759ZM16.5709 17.7051C16.5587 17.708 16.5336 17.7129 16.4975 17.7153C16.4611 17.7176 16.4197 17.717 16.3759 17.7119L17.1413 11.0959C16.4169 11.0121 15.704 11.0643 15.021 11.2278L16.5709 17.7051ZM16.4074 17.7154C16.239 17.6976 16.0711 17.6399 15.9346 17.5581L19.3595 11.8459C18.6721 11.4338 17.9119 11.1774 17.1098 11.0924L16.4074 17.7154ZM15.9493 17.5668C15.7487 17.4479 15.6506 17.3207 15.6276 17.287L21.1288 13.5327C20.6863 12.8843 20.1008 12.2852 19.3448 11.8372L15.9493 17.5668ZM15.6319 17.2932C15.5914 17.2342 15.578 17.2002 15.5808 17.2069C15.5838 17.214 15.5999 17.2549 15.6201 17.3393L22.0974 15.7893C21.9176 15.0383 21.6206 14.2498 21.1245 13.5264L15.6319 17.2932ZM15.6201 17.3393L15.7117 17.7222L22.189 16.1723L22.0974 15.7893L15.6201 17.3393ZM18.1754 13.7086L13.8315 14.7481L15.3814 21.2254L19.7253 20.1859L18.1754 13.7086ZM17.8451 17.2117L17.6437 16.3699L11.1664 17.9198L11.3678 18.7617L17.8451 17.2117ZM15.18 20.3835L18.3266 19.6305L16.7767 13.1532L13.63 13.9062L15.18 20.3835ZM20.7827 15.5858C20.6085 14.8875 20.274 14.1802 19.7196 13.5638L14.7677 18.0176C14.5049 17.7255 14.3757 17.4189 14.3206 17.198L20.7827 15.5858ZM19.731 13.5766C19.1877 12.9662 18.4953 12.5144 17.7026 12.2676L15.7229 18.6268C15.3454 18.5092 15.0069 18.2865 14.7563 18.0049L19.731 13.5766ZM17.7205 12.2732C16.8596 11.9999 16.014 12.0189 15.271 12.1966L16.821 18.6739C16.5565 18.7372 16.1553 18.7641 15.7051 18.6211L17.7205 12.2732ZM15.271 12.1966C14.4664 12.3892 13.6685 12.7957 13.0146 13.4774L17.821 18.0878C17.4941 18.4286 17.115 18.6036 16.821 18.6739L15.271 12.1966ZM13.0342 13.4571C12.4724 14.0329 12.0718 14.7349 11.8636 15.5163L18.2992 17.2313C18.2114 17.5608 18.0351 17.8686 17.8014 18.1081L13.0342 13.4571ZM11.8601 15.5297C11.6578 16.3015 11.6619 17.0776 11.8293 17.8082L18.3213 16.3212C18.3799 16.5769 18.388 16.8924 18.3027 17.218L11.8601 15.5297ZM11.8366 17.8397L12.0125 18.5746L18.4898 17.0246L18.3139 16.2897L11.8366 17.8397ZM12.0125 18.5746C12.1795 19.2726 12.4973 20.0357 13.0778 20.7153L18.1424 16.3901C18.3917 16.6821 18.4703 16.943 18.4898 17.0246L12.0125 18.5746ZM13.087 20.7261C13.6451 21.3739 14.3779 21.8735 15.2499 22.134L17.1567 15.7527C17.5677 15.8755 17.9051 16.1146 18.1332 16.3793L13.087 20.7261ZM15.2772 22.1421C16.147 22.3939 16.9918 22.3612 17.7303 22.1844L16.1804 15.7071C16.376 15.6603 16.7195 15.626 17.1294 15.7446L15.2772 22.1421ZM17.7303 22.1844C18.2117 22.0693 18.7231 21.8759 19.2163 21.5626L15.6449 15.941C15.8678 15.7994 16.0625 15.7353 16.1804 15.7071L17.7303 22.1844ZM19.2552 21.5375C19.7477 21.215 20.1895 20.7906 20.5374 20.2636L14.9791 16.5944C15.1592 16.3216 15.3826 16.1124 15.606 15.9661L19.2552 21.5375ZM20.5374 20.2636C20.9281 19.6717 21.1438 19.0262 21.2198 18.3891L14.6066 17.5995C14.6438 17.2879 14.7561 16.9321 14.9791 16.5944L20.5374 20.2636ZM18.3215 21.2993L19.5191 21.1513L18.7025 14.5414L17.5049 14.6893L18.3215 21.2993ZM15.7807 17.8479C15.7806 17.6315 15.8371 17.3851 15.9573 17.1639L21.8087 20.3449C22.2329 19.5647 22.4413 18.7129 22.4409 17.8448L15.7807 17.8479ZM15.9564 17.1656C16.0806 16.9368 16.2315 16.8036 16.3113 16.7477L20.1357 22.2004C20.7944 21.7384 21.385 21.1255 21.8096 20.3433L15.9564 17.1656ZM16.3284 16.7358C16.438 16.6599 16.4849 16.663 16.3959 16.6842L17.9459 23.1615C18.6804 22.9858 19.429 22.6896 20.1187 22.2122L16.3284 16.7358ZM21.4744 18.5429L20.5179 21.7327C20.5254 21.7349 20.5329 21.7372 20.5404 21.7394L21.4744 18.5429ZM20.3614 17.8097L17.8209 19.9627L17.8258 19.9684L20.3614 17.8097ZM19.672 14.9288L16.4321 14.1592L16.4304 14.1663L19.672 14.9288ZM20.3172 13.753L22.6714 16.1083C22.6749 16.1048 22.6784 16.1013 22.6818 16.0978L20.3172 13.753ZM22.5179 13.0257L22.1353 16.3338C22.1458 16.335 22.1563 16.3361 22.1668 16.3372L22.5179 13.0257ZM23.4064 13.3238L21.694 16.1799C21.6989 16.1828 21.7037 16.1857 21.7086 16.1886L23.4064 13.3238ZM24.1375 14.0316L21.3869 15.9088L21.3912 15.9151L24.1375 14.0316ZM24.7097 15.5691L25.4847 18.8077C27.2733 18.3797 28.3764 16.5828 27.9484 14.7941L24.7097 15.5691ZM20.3658 16.6085L17.1272 17.3835C17.5552 19.1722 19.3521 20.2752 21.1408 19.8472L20.3658 16.6085ZM20.1644 15.7667L19.3894 12.528C17.6007 12.956 16.4977 14.753 16.9257 16.5417L20.1644 15.7667ZM23.311 15.0137L24.086 18.2524C24.9503 18.0455 25.6961 17.5018 26.1574 16.7421C26.6187 15.9825 26.7572 15.0699 26.5421 14.2076L23.311 15.0137ZM23.003 14.4126L20.5157 16.6267C20.5195 16.631 20.5232 16.6352 20.5271 16.6395L23.003 14.4126ZM22.4721 14.069L21.4644 17.243C21.4704 17.2449 21.4763 17.2467 21.4823 17.2486L22.4721 14.069ZM21.1772 14.4044L23.5608 16.7299C23.5673 16.7232 23.5739 16.7164 23.5804 16.7096L21.1772 14.4044ZM20.8408 14.9956L17.6229 14.1381L17.6194 14.1515L20.8408 14.9956ZM20.8346 15.6865L17.5886 16.43C17.591 16.4405 17.5935 16.451 17.596 16.4615L20.8346 15.6865ZM21.3694 17.1746L18.8372 19.3372C18.8402 19.3408 18.8433 19.3443 18.8464 19.3479L21.3694 17.1746ZM21.9627 17.5652L21.0093 20.7559C21.0183 20.7586 21.0274 20.7613 21.0366 20.7639L21.9627 17.5652ZM23.1899 17.3736L24.9756 20.1845C24.9887 20.1762 25.0016 20.1678 25.0146 20.1594L23.1899 17.3736ZM23.5176 17.0508L26.2967 18.8855L23.5176 17.0508ZM23.6726 16.6161L23.2643 13.3112C21.7438 13.499 20.5476 14.7001 20.366 16.2214L23.6726 16.6161ZM24.8701 16.4682L28.2002 16.4667C28.1998 15.5126 27.7902 14.6045 27.0752 13.9728C26.3603 13.341 25.4087 13.0463 24.4618 13.1632L24.8701 16.4682ZM24.6424 17.3763L21.7167 15.7858L21.7158 15.7874L24.6424 17.3763ZM23.9829 18.0959L25.8781 20.8341C25.8837 20.8301 25.8894 20.8262 25.8951 20.8222L23.9829 18.0959ZM22.1553 15.3061C22.1134 15.3161 22.1217 15.3095 22.1719 15.3095C22.2249 15.3096 22.3081 15.3172 22.4083 15.3465L20.5404 21.7394C21.6348 22.0591 22.7197 22.0192 23.7053 21.7834L22.1553 15.3061ZM22.4309 15.3532C22.5135 15.3779 22.6075 15.4194 22.7 15.4804C22.7919 15.5409 22.857 15.6039 22.8971 15.651L17.8258 19.9684C18.5339 20.8001 19.4476 21.4117 20.5179 21.7327L22.4309 15.3532ZM22.902 15.6568C22.9238 15.6826 22.9403 15.7057 22.9522 15.7242C22.9641 15.7427 22.9703 15.755 22.9722 15.7591C22.976 15.767 22.9619 15.7398 22.9436 15.6634L16.4663 17.2134C16.6954 18.1709 17.1152 19.1299 17.8209 19.9627L22.902 15.6568ZM22.9436 15.6634C22.9274 15.5954 22.928 15.5694 22.9282 15.5795C22.9283 15.5846 22.9283 15.5976 22.9263 15.6176C22.9242 15.6376 22.9204 15.6626 22.9137 15.6912L16.4304 14.1663C16.1831 15.2179 16.237 16.2549 16.4663 17.2134L22.9436 15.6634ZM22.912 15.6983C22.9027 15.7374 22.8809 15.8059 22.8354 15.8887C22.7894 15.9726 22.732 16.0477 22.6714 16.1083L17.9631 11.3977C17.1824 12.178 16.6768 13.129 16.4321 14.1592L22.912 15.6983ZM22.6818 16.0978C22.6015 16.1788 22.5164 16.239 22.4414 16.2793C22.3691 16.3181 22.3256 16.3281 22.3303 16.3269L20.7803 9.84963C19.7622 10.0933 18.7696 10.5843 17.9526 11.4082L22.6818 16.0978ZM22.3303 16.3269C22.3181 16.3299 22.293 16.3348 22.2569 16.3371C22.2204 16.3395 22.1791 16.3388 22.1353 16.3338L22.9006 9.71771C22.1763 9.63391 21.4634 9.68618 20.7803 9.84963L22.3303 16.3269ZM22.1668 16.3372C21.9984 16.3194 21.8305 16.2617 21.694 16.1799L25.1188 10.4678C24.4315 10.0557 23.6713 9.79928 22.8691 9.71421L22.1668 16.3372ZM21.7086 16.1886C21.508 16.0697 21.41 15.9425 21.3869 15.9088L26.8881 12.1545C26.4457 11.5061 25.8602 10.9071 25.1041 10.459L21.7086 16.1886ZM21.3912 15.9151C21.3508 15.856 21.3374 15.822 21.3402 15.8287C21.3431 15.8359 21.3592 15.8767 21.3794 15.9611L27.8567 14.4111C27.677 13.6601 27.38 12.8717 26.8838 12.1482L21.3912 15.9151ZM21.3794 15.9611L21.4711 16.3441L27.9484 14.7941L27.8567 14.4111L21.3794 15.9611ZM23.9347 12.3304L19.5908 13.3699L21.1408 19.8472L25.4847 18.8077L23.9347 12.3304ZM23.6045 15.8336L23.403 14.9917L16.9257 16.5417L17.1272 17.3835L23.6045 15.8336ZM20.9394 19.0053L24.086 18.2524L22.536 11.7751L19.3894 12.528L20.9394 19.0053ZM26.5421 14.2076C26.3679 13.5094 26.0333 12.802 25.479 12.1857L20.5271 16.6395C20.2643 16.3473 20.1351 16.0407 20.08 15.8198L26.5421 14.2076ZM25.4904 12.1984C24.947 11.588 24.2546 11.1362 23.462 10.8895L21.4823 17.2486C21.1048 17.1311 20.7663 16.9083 20.5157 16.6267L25.4904 12.1984ZM23.4798 10.8951C22.619 10.6218 21.7733 10.6407 21.0304 10.8185L22.5804 17.2958C22.3159 17.3591 21.9147 17.3859 21.4644 17.243L23.4798 10.8951ZM21.0304 10.8185C20.2257 11.011 19.4278 11.4175 18.7739 12.0992L23.5804 16.7096C23.2535 17.0505 22.8744 17.2254 22.5804 17.2958L21.0304 10.8185ZM18.7935 12.079C18.2318 12.6547 17.8312 13.3567 17.623 14.1381L24.0585 15.8531C23.9707 16.1826 23.7944 16.4904 23.5608 16.7299L18.7935 12.079ZM17.6194 14.1515C17.4172 14.9233 17.4213 15.6994 17.5886 16.43L24.0807 14.943C24.1392 15.1988 24.1474 15.5142 24.0621 15.8398L17.6194 14.1515ZM17.596 16.4615L17.7718 17.1964L24.2491 15.6465L24.0733 14.9116L17.596 16.4615ZM17.7718 17.1964C17.9389 17.8945 18.2567 18.6575 18.8372 19.3372L23.9017 15.0119C24.1511 15.3039 24.2296 15.5649 24.2491 15.6465L17.7718 17.1964ZM18.8464 19.3479C19.4044 19.9958 20.1373 20.4953 21.0093 20.7559L22.9161 14.3745C23.3271 14.4973 23.6645 14.7364 23.8925 15.0012L18.8464 19.3479ZM21.0366 20.7639C21.9063 21.0157 22.7512 20.983 23.4897 20.8063L21.9397 14.329C22.1354 14.2821 22.4789 14.2478 22.8888 14.3665L21.0366 20.7639ZM23.4897 20.8063C23.971 20.6911 24.4825 20.4978 24.9756 20.1845L21.4042 14.5628C21.6272 14.4212 21.8218 14.3572 21.9397 14.329L23.4897 20.8063ZM25.0146 20.1594C25.507 19.8368 25.9489 19.4124 26.2967 18.8855L20.7385 15.2162C20.9186 14.9434 21.142 14.7342 21.3653 14.5879L25.0146 20.1594ZM26.2967 18.8855C26.6875 18.2935 26.9031 17.648 26.9792 17.0109L20.366 16.2214C20.4032 15.9097 20.5155 15.554 20.7385 15.2162L26.2967 18.8855ZM24.0809 19.9211L25.2784 19.7731L24.4618 13.1632L23.2643 13.3112L24.0809 19.9211ZM21.5401 16.4697C21.54 16.2534 21.5965 16.0069 21.7167 15.7858L27.5681 18.9668C27.9923 18.1865 28.2006 17.3347 28.2002 16.4667L21.5401 16.4697ZM21.7158 15.7874C21.84 15.5587 21.9909 15.4255 22.0707 15.3695L25.8951 20.8222C26.5538 20.3602 27.1444 19.7473 27.569 18.9651L21.7158 15.7874ZM22.0877 15.3577C22.1974 15.2817 22.2442 15.2848 22.1553 15.3061L23.7053 21.7834C24.4398 21.6076 25.1884 21.3114 25.8781 20.8341L22.0877 15.3577ZM9.15614 23.5146L12.3948 22.7397C11.9668 20.951 10.1698 19.848 8.38116 20.276L9.15614 23.5146ZM10.847 30.5808L11.622 33.8194C13.4107 33.3914 14.5137 31.5945 14.0857 29.8058L10.847 30.5808ZM9.59802 30.8797L6.35937 31.6547C6.78738 33.4433 8.58434 34.5463 10.373 34.1183L9.59802 30.8797ZM7.90715 23.8135L7.13216 20.5749C5.34351 21.0029 4.24048 22.7998 4.6685 24.5885L7.90715 23.8135ZM5.91749 24.2896L7.60836 31.3558L14.0857 29.8058L12.3948 22.7397L5.91749 24.2896ZM10.072 27.3421L8.82303 27.641L10.373 34.1183L11.622 33.8194L10.072 27.3421ZM12.8367 30.1047L11.1458 23.0385L4.6685 24.5885L6.35937 31.6547L12.8367 30.1047ZM8.68213 27.0522L9.93113 26.7533L8.38116 20.276L7.13216 20.5749L8.68213 27.0522ZM12.7316 30.0532L12.0906 33.321C12.1019 33.3232 12.1132 33.3254 12.1245 33.3275L12.7316 30.0532ZM11.968 29.6669L9.67574 32.0825C9.68121 32.0877 9.6867 32.0928 9.6922 32.098L11.968 29.6669ZM11.5152 28.0644L8.31408 27.1467L8.31408 27.1467L11.5152 28.0644ZM11.8549 27.487L9.49911 25.1334L9.49911 25.1334L11.8549 27.487ZM12.4365 27.0669L13.9739 30.0209C13.9805 30.0175 13.9871 30.014 13.9937 30.0106L12.4365 27.0669ZM13.1531 26.7532L12.0481 23.6118L12.0375 23.6156L13.1531 26.7532ZM13.888 26.4862L15.077 29.5968C15.0891 29.5921 15.1012 29.5874 15.1132 29.5827L13.888 26.4862ZM14.2792 26.2612L16.6639 28.5856C16.6691 28.5803 16.6743 28.5749 16.6795 28.5695L14.2792 26.2612ZM13.9696 25.3942L15.6005 22.4908L15.6005 22.4908L13.9696 25.3942ZM12.5724 25.7139L10.018 23.5775C10.0136 23.5827 10.0092 23.588 10.0048 23.5933L12.5724 25.7139ZM12.3267 26.2725L12.6386 29.5879C14.2304 29.4382 15.4911 28.1782 15.6419 26.5865L12.3267 26.2725ZM11.1209 26.3859L7.79392 26.2414C7.75213 27.2031 8.12858 28.1359 8.8262 28.7992C9.52383 29.4625 10.4744 29.7915 11.4328 29.7014L11.1209 26.3859ZM11.3831 25.4696L14.2397 27.181C14.2428 27.176 14.2458 27.171 14.2488 27.1659L11.3831 25.4696ZM12.0422 24.7939L13.852 27.5893C13.8582 27.5852 13.8644 27.5812 13.8706 27.5771L12.0422 24.7939ZM14.5654 24.4235L13.4297 27.554C13.4377 27.5569 13.4457 27.5598 13.4538 27.5626L14.5654 24.4235ZM15.2021 24.8585L12.7193 27.0777C12.7248 27.084 12.7305 27.0902 12.7361 27.0965L15.2021 24.8585ZM16.4546 29.239L17.2295 32.4776C19.0182 32.0496 20.1212 30.2526 19.6932 28.464L16.4546 29.239ZM15.2539 29.5263L12.0152 30.3013C12.4432 32.0899 14.2402 33.1929 16.0289 32.7649L15.2539 29.5263ZM15.0797 28.7983L18.3183 28.0233C17.8903 26.2346 16.0933 25.1316 14.3047 25.5596L15.0797 28.7983ZM15.0383 28.8082L14.2633 25.5695C13.051 25.8596 12.1023 26.8024 11.8046 28.0127L15.0383 28.8082ZM14.8165 29.299L17.5917 31.1395L17.5928 31.1378L14.8165 29.299ZM14.3758 29.7291L16.2284 32.4963C16.2341 32.4925 16.2397 32.4887 16.2454 32.4849L14.3758 29.7291ZM14.4033 28.7157L16.6192 31.2015C16.6272 31.1944 16.6352 31.1872 16.6431 31.18L14.4033 28.7157ZM14.7319 28.2139L11.5643 27.1864C11.5608 27.1972 11.5574 27.2079 11.554 27.2187L14.7319 28.2139ZM14.6047 27.0114L17.8433 26.2364C17.5434 24.9832 16.5474 24.0154 15.286 23.7518C14.0246 23.4881 12.7244 23.9759 11.9476 25.0041L14.6047 27.0114ZM14.426 27.149L12.7725 24.2584C12.766 24.2621 12.7595 24.2659 12.7531 24.2696L14.426 27.149ZM14.1328 27.2958L15.4693 30.3459L15.4693 30.3459L14.1328 27.2958ZM13.5211 27.5443L14.7248 30.6492L14.7342 30.6455L13.5211 27.5443ZM13.0505 27.7882L11.1503 25.0535L11.1503 25.0535L13.0505 27.7882ZM12.7598 28.1131L15.7374 29.6044C15.7429 29.5934 15.7483 29.5824 15.7537 29.5714L12.7598 28.1131ZM13.1028 28.9977L11.8833 32.0965L11.8833 32.0965L13.1028 28.9977ZM12.907 26.7768C12.9609 26.7639 13.1184 26.7381 13.3388 26.779L12.1245 33.3275C12.9404 33.4788 13.7314 33.4278 14.457 33.2541L12.907 26.7768ZM13.3726 26.7854C13.6677 26.8433 13.9854 26.9939 14.2438 27.2358L9.6922 32.098C10.3768 32.7388 11.2035 33.147 12.0906 33.321L13.3726 26.7854ZM14.2602 27.2513C14.6141 27.5871 14.7334 27.9354 14.7658 28.0709L8.28846 29.6208C8.4871 30.4509 8.90029 31.3466 9.67574 32.0825L14.2602 27.2513ZM14.7658 28.0709C14.785 28.1512 14.8548 28.4993 14.7164 28.9821L8.31408 27.1467C8.04842 28.0734 8.12614 28.9425 8.28846 29.6208L14.7658 28.0709ZM14.7164 28.9821C14.6248 29.3015 14.4477 29.6035 14.2107 29.8407L9.49911 25.1334C8.9365 25.6965 8.5329 26.3834 8.31408 27.1467L14.7164 28.9821ZM14.2107 29.8407C14.1102 29.9413 14.0208 29.9965 13.9739 30.0209L10.8992 24.113C10.4025 24.3715 9.92535 24.7067 9.49911 25.1334L14.2107 29.8407ZM13.9937 30.0106C14.0726 29.9688 14.1634 29.9283 14.2687 29.8909L12.0375 23.6156C11.6406 23.7567 11.2538 23.9253 10.8794 24.1233L13.9937 30.0106ZM14.258 29.8947C14.5744 29.7834 14.8505 29.6833 15.077 29.5968L12.6991 23.3756C12.5512 23.4321 12.3373 23.5101 12.0481 23.6118L14.258 29.8947ZM15.1132 29.5827C15.4168 29.4625 16.0859 29.1786 16.6639 28.5856L11.8946 23.9368C12.1403 23.6847 12.3656 23.5453 12.4659 23.4876C12.5776 23.4234 12.6525 23.3937 12.6628 23.3897L15.1132 29.5827ZM16.6795 28.5695C17.6494 27.561 17.8433 26.2517 17.5889 25.1884L11.1116 26.7383C11.0289 26.3928 10.9828 25.9084 11.1146 25.3555C11.2505 24.785 11.5366 24.309 11.879 23.9529L16.6795 28.5695ZM17.5889 25.1884L17.5839 25.1677L11.1066 26.7176L11.1116 26.7383L17.5889 25.1884ZM17.5839 25.1677C17.3609 24.2356 16.7835 23.1553 15.6005 22.4908L12.3388 28.2976C11.9752 28.0934 11.6756 27.8112 11.4572 27.4923C11.2479 27.1866 11.1512 26.9041 11.1066 26.7176L17.5839 25.1677ZM15.6005 22.4908C14.4421 21.8401 13.2701 21.9113 12.4775 22.101L14.0275 28.5783C13.8146 28.6292 13.1206 28.7367 12.3388 28.2976L15.6005 22.4908ZM12.4775 22.101C11.7275 22.2804 10.767 22.6819 10.018 23.5775L15.1268 27.8504C14.6728 28.3933 14.1657 28.5452 14.0275 28.5783L12.4775 22.101ZM10.0048 23.5933C9.5028 24.2012 9.10223 25.0002 9.01145 25.9584L15.6419 26.5865C15.5884 27.1516 15.3516 27.5783 15.14 27.8345L10.0048 23.5933ZM12.0148 22.957L10.8089 23.0705L11.4328 29.7014L12.6386 29.5879L12.0148 22.957ZM14.4478 26.5305C14.4413 26.6793 14.394 26.9236 14.2397 27.181L8.52647 23.7581C8.05246 24.5493 7.83029 25.4044 7.79392 26.2414L14.4478 26.5305ZM14.2488 27.1659C14.1285 27.3691 13.9746 27.5099 13.852 27.5893L10.2324 21.9985C9.54965 22.4405 8.95638 23.0318 8.51746 23.7732L14.2488 27.1659ZM13.8706 27.5771C13.8302 27.6037 13.7988 27.6186 13.7822 27.6255C13.7662 27.6323 13.7676 27.63 13.7919 27.6242L12.2419 21.1469C11.5481 21.3129 10.8568 21.5882 10.2138 22.0106L13.8706 27.5771ZM13.7919 27.6242C13.7928 27.624 13.7938 27.6238 13.7957 27.6235C13.7975 27.6233 13.8021 27.6229 13.8101 27.6228L13.7917 20.9627C13.2712 20.9641 12.7527 21.0247 12.2419 21.1469L13.7919 27.6242ZM13.8101 27.6228C13.7017 27.6231 13.5678 27.6041 13.4297 27.554L15.7012 21.2931C15.0783 21.0671 14.4348 20.9609 13.7917 20.9627L13.8101 27.6228ZM13.4538 27.5626C13.1325 27.4489 12.8829 27.2608 12.7193 27.0777L17.6849 22.6393C17.156 22.0475 16.4819 21.5695 15.677 21.2845L13.4538 27.5626ZM12.7361 27.0965C12.4444 26.7751 12.3736 26.4941 12.3672 26.4671L18.8445 24.9171C18.6696 24.1863 18.3296 23.3495 17.668 22.6205L12.7361 27.0965ZM12.3672 26.4671L13.2159 30.0139L19.6932 28.464L18.8445 24.9171L12.3672 26.4671ZM15.6796 26.0003L14.4789 26.2876L16.0289 32.7649L17.2295 32.4776L15.6796 26.0003ZM18.4925 28.7513L18.3183 28.0233L11.841 29.5732L12.0152 30.3013L18.4925 28.7513ZM14.3047 25.5596L14.2633 25.5695L15.8132 32.0468L15.8546 32.0369L14.3047 25.5596ZM11.8046 28.0127C11.8671 27.7586 11.9652 27.5733 12.0401 27.4601L17.5928 31.1378C17.8821 30.7011 18.1281 30.1885 18.2719 29.6036L11.8046 28.0127ZM12.0412 27.4585C12.2167 27.1939 12.4038 27.0429 12.5063 26.9733L16.2454 32.4849C16.7245 32.1598 17.2054 31.7221 17.5917 31.1395L12.0412 27.4585ZM12.5233 26.9619C12.739 26.8175 12.8959 26.7795 12.907 26.7768L14.457 33.2541C15.0201 33.1194 15.6396 32.8905 16.2284 32.4963L12.5233 26.9619ZM14.5617 32.2588C15.241 32.0962 15.9735 31.7771 16.6192 31.2015L12.1874 26.2299C12.5124 25.9402 12.8339 25.824 13.0117 25.7815L14.5617 32.2588ZM16.6431 31.18C17.2005 30.6734 17.6583 30.0122 17.9098 29.2092L11.554 27.2187C11.687 26.7942 11.9257 26.4675 12.1635 26.2514L16.6431 31.18ZM17.8995 29.2414C18.1516 28.4642 18.181 27.6477 17.9927 26.8609L11.5154 28.4109C11.4207 28.0151 11.4354 27.5839 11.5643 27.1864L17.8995 29.2414ZM17.9927 26.8609L17.8433 26.2364L11.366 27.7864L11.5154 28.4109L17.9927 26.8609ZM11.9476 25.0041C12.1711 24.7083 12.3931 24.5245 12.5045 24.4387C12.6278 24.3437 12.7263 24.2849 12.7725 24.2584L16.0795 30.0396C16.2598 29.9364 16.8089 29.6182 17.2617 29.0188L11.9476 25.0041ZM12.7531 24.2696C12.776 24.2563 12.7915 24.2483 12.798 24.2451C12.8046 24.2418 12.8044 24.2421 12.7964 24.2456L15.4693 30.3459C15.671 30.2575 15.8844 30.153 16.0989 30.0284L12.7531 24.2696ZM12.7964 24.2456C12.7221 24.2781 12.6498 24.3083 12.5792 24.3362L15.0297 30.5292C15.1768 30.471 15.3234 30.4098 15.4693 30.3459L12.7964 24.2456ZM12.5792 24.3362C12.4731 24.3782 12.3828 24.4137 12.3079 24.443L14.7342 30.6455C14.8195 30.6122 14.9181 30.5733 15.0297 30.5292L12.5792 24.3362ZM12.3173 24.4394C11.936 24.5872 11.5367 24.785 11.1503 25.0535L14.9508 30.5229C14.8312 30.606 14.7457 30.6411 14.7248 30.6492L12.3173 24.4394ZM11.1503 25.0535C10.6334 25.4127 10.1171 25.9341 9.76603 26.6548L15.7537 29.5714C15.5233 30.0444 15.2008 30.3492 14.9508 30.5229L11.1503 25.0535ZM9.78232 26.6219C9.29834 27.5882 9.30789 28.5608 9.48765 29.312L15.965 27.762C16.0677 28.1912 16.0996 28.8812 15.7374 29.6044L9.78232 26.6219ZM9.48765 29.312C9.75965 30.4487 10.5387 31.5673 11.8833 32.0965L14.3223 25.899C14.7208 26.0558 15.1199 26.3254 15.4402 26.7173C15.7505 27.097 15.8979 27.4818 15.965 27.762L9.48765 29.312ZM11.8833 32.0965C12.866 32.4832 13.8171 32.4369 14.5617 32.2588L13.0117 25.7815C13.2365 25.7277 13.7316 25.6665 14.3223 25.899L11.8833 32.0965ZM18.9595 28.6396L19.7344 31.8782C21.5231 31.4502 22.6261 29.6532 22.1981 27.8646L18.9595 28.6396ZM17.7105 28.9384L14.4718 29.7134C14.8998 31.5021 16.6968 32.6051 18.4854 32.1771L17.7105 28.9384ZM16.4423 23.6388L15.6673 20.4002C13.8787 20.8282 12.7756 22.6251 13.2037 24.4138L16.4423 23.6388ZM17.6361 23.3532L20.8747 22.5782C20.4467 20.7895 18.6498 19.6865 16.8611 20.1145L17.6361 23.3532ZM17.8516 24.2537L14.6129 25.0287C15.0409 26.8173 16.8379 27.9203 18.6266 27.4923L17.8516 24.2537ZM17.9137 24.2388L18.6887 27.4775C20.002 27.1632 20.9955 26.087 21.2039 24.7528L17.9137 24.2388ZM18.3275 23.392L15.9134 21.0982L15.9044 21.1077L18.3275 23.392ZM20.2738 22.8971L19.3282 26.0901L19.3398 26.0935L20.2738 22.8971ZM21.0713 23.4249L18.5278 25.5743C18.5322 25.5795 18.5366 25.5847 18.5411 25.5899L21.0713 23.4249ZM21.554 24.4511L18.3111 25.2085C18.3125 25.2144 18.3139 25.2202 18.3153 25.2261L21.554 24.4511ZM22.3614 27.8255L23.1364 31.0641C24.9251 30.6361 26.0281 28.8392 25.6001 27.0505L22.3614 27.8255ZM21.1124 28.1244L17.8738 28.8994C18.3018 30.688 20.0987 31.791 21.8874 31.363L21.1124 28.1244ZM19.8762 24.1778L17.9995 26.9287C18.0053 26.9326 18.011 26.9365 18.0168 26.9404L19.8762 24.1778ZM18.5003 24.3428L20.762 26.7871C20.7657 26.7837 20.7693 26.7803 20.773 26.7769L18.5003 24.3428ZM18.2018 24.8484L14.9829 23.9953C14.98 24.006 14.9772 24.0167 14.9745 24.0275L18.2018 24.8484ZM14.9777 26.3093L15.7208 29.4145L22.1981 27.8646L21.455 24.7593L14.9777 26.3093ZM18.1845 25.4009L16.9355 25.6998L18.4854 32.1771L19.7344 31.8782L18.1845 25.4009ZM20.9491 28.1634L19.681 22.8638L13.2037 24.4138L14.4718 29.7134L20.9491 28.1634ZM17.2173 26.8775L18.4111 26.5918L16.8611 20.1145L15.6673 20.4002L17.2173 26.8775ZM14.3974 24.1281L14.6129 25.0287L21.0902 23.4787L20.8747 22.5782L14.3974 24.1281ZM18.6266 27.4923L18.6887 27.4775L17.1387 21.0002L17.0766 21.015L18.6266 27.4923ZM21.2039 24.7528C21.1805 24.9025 21.1317 25.072 21.0473 25.2448C20.9627 25.4178 20.8579 25.5625 20.7506 25.6763L15.9044 21.1077C15.2156 21.8384 14.7775 22.7389 14.6235 23.7249L21.2039 24.7528ZM20.7416 25.6858C20.432 26.0116 20.1212 26.1096 20.0369 26.1298L18.4869 19.6525C17.6114 19.862 16.6776 20.2939 15.9134 21.0982L20.7416 25.6858ZM20.0369 26.1298C19.931 26.1552 19.6665 26.1903 19.3282 26.0901L21.2194 19.7041C20.2633 19.4209 19.3243 19.4521 18.4869 19.6525L20.0369 26.1298ZM19.3398 26.0935C19.1803 26.0469 19.019 25.9737 18.8687 25.8742C18.7195 25.7755 18.6071 25.6682 18.5278 25.5743L23.6148 21.2754C22.9962 20.5434 22.1813 19.9851 21.2077 19.7006L19.3398 26.0935ZM18.5411 25.5899C18.336 25.3503 18.3016 25.1676 18.3111 25.2085L24.7968 23.6938C24.6084 22.8871 24.2521 22.0202 23.6015 21.2598L18.5411 25.5899ZM18.3153 25.2261L19.1228 28.6005L25.6001 27.0505L24.7926 23.6762L18.3153 25.2261ZM21.5864 24.5868L20.3374 24.8857L21.8874 31.363L23.1364 31.0641L21.5864 24.5868ZM24.3511 27.3494L23.5898 24.1682L17.1125 25.7182L17.8738 28.8994L24.3511 27.3494ZM23.5898 24.1682C23.3713 23.255 22.8494 22.1648 21.7356 21.4151L18.0168 26.9404C17.3668 26.5029 17.1615 25.923 17.1125 25.7182L23.5898 24.1682ZM21.7529 21.4268C20.5995 20.64 19.3186 20.5697 18.2738 20.8197L19.8237 27.297C19.6508 27.3384 19.3709 27.3768 19.0217 27.3264C18.6584 27.274 18.3053 27.1373 17.9995 26.9287L21.7529 21.4268ZM18.2738 20.8197C17.5615 20.9902 16.8434 21.3339 16.2277 21.9088L20.773 26.7769C20.4514 27.0771 20.099 27.2312 19.8237 27.297L18.2738 20.8197ZM16.2387 21.8986C15.6024 22.4873 15.1885 23.2194 14.9829 23.9953L21.4208 25.7015C21.3225 26.0722 21.1076 26.4673 20.762 26.7871L16.2387 21.8986ZM14.9745 24.0275C14.7599 24.8711 14.8229 25.6623 14.9777 26.3093L21.455 24.7593C21.4877 24.8957 21.541 25.2296 21.4291 25.6693L14.9745 24.0275ZM24.5213 27.0497L23.4829 30.2137L23.4915 30.2165L24.5213 27.0497ZM23.4181 26.2959L20.8536 28.4202C20.8583 28.426 20.8631 28.4317 20.8679 28.4374L23.4181 26.2959ZM22.7438 23.4478L25.9855 24.2102L25.9871 24.203L22.7438 23.4478ZM23.389 22.272L25.7368 24.6337L25.7408 24.6296L23.389 22.272ZM25.8502 21.5663L25.1496 24.8219C25.1587 24.8238 25.1677 24.8257 25.1768 24.8276L25.8502 21.5663ZM26.8066 22.0415L24.5777 24.5157L24.587 24.524L26.8066 22.0415ZM27.3841 22.9612L28.1591 26.1998C29.0586 25.9846 29.8281 25.4049 30.2832 24.5997C30.7383 23.7945 30.838 22.8363 30.5585 21.9547L27.3841 22.9612ZM26.1904 23.2468L23.1522 24.6104C23.8075 26.0705 25.4088 26.8579 26.9653 26.4855L26.1904 23.2468ZM25.6926 22.6911L24.0065 25.5628C24.019 25.5701 24.0315 25.5774 24.0441 25.5846L25.6926 22.6911ZM24.2863 22.9729L26.782 25.1777C26.7878 25.1711 26.7936 25.1645 26.7994 25.1578L24.2863 22.9729ZM23.9747 23.6676L20.6902 23.1185C20.6888 23.1269 20.6874 23.1352 20.6861 23.1436L23.9747 23.6676ZM24.4172 25.5169L21.7098 27.4558L21.7158 27.4642L24.4172 25.5169ZM25.0051 26.0073L23.7116 29.0759C23.7255 29.0818 23.7394 29.0875 23.7533 29.0932L25.0051 26.0073ZM26.203 25.8301L28.2951 28.421C28.3008 28.4164 28.3066 28.4117 28.3123 28.407L26.203 25.8301ZM26.4987 25.4347L23.4355 24.1285L23.4355 24.1285L26.4987 25.4347ZM26.5858 24.8995L25.8108 21.6609C24.2586 22.0323 23.1881 23.4529 23.259 25.0475L26.5858 24.8995ZM27.7796 24.6139L31.0696 24.0988C30.9259 23.1808 30.4052 22.3646 29.6332 21.8473C28.8613 21.3301 27.9083 21.159 27.0046 21.3752L27.7796 24.6139ZM27.687 25.6902L30.8137 26.8361L30.8179 26.8246L27.687 25.6902ZM27.0691 26.5531L29.189 29.1212C29.1938 29.1172 29.1986 29.1132 29.2034 29.1092L27.0691 26.5531ZM25.1926 23.8334C25.1647 23.84 25.1906 23.8306 25.2607 23.8317C25.3342 23.8328 25.436 23.8453 25.5512 23.8828L23.4915 30.2165C24.6121 30.5809 25.7305 30.5528 26.7425 30.3107L25.1926 23.8334ZM25.5597 23.8856C25.6346 23.9102 25.7183 23.9496 25.7994 24.005C25.8799 24.06 25.9355 24.1154 25.9682 24.1544L20.8679 28.4374C21.5555 29.2562 22.4405 29.8716 23.4829 30.2137L25.5597 23.8856ZM25.9826 24.1716C25.9988 24.1912 26.0114 24.2091 26.0208 24.2238C26.0301 24.2384 26.0351 24.2483 26.0367 24.2518C26.0401 24.2589 26.0283 24.2363 26.0129 24.1721L19.5356 25.722C19.7626 26.6704 20.1773 27.6038 20.8536 28.4202L25.9826 24.1716ZM26.0129 24.1721C25.9982 24.1104 25.9992 24.0886 25.9995 24.1009C25.9996 24.107 25.9995 24.1204 25.9975 24.1399C25.9955 24.1596 25.9918 24.1834 25.9854 24.2102L19.5022 22.6853C19.2563 23.7308 19.3062 24.7633 19.5356 25.722L26.0129 24.1721ZM25.9871 24.203C25.9767 24.2478 25.9532 24.3213 25.9055 24.4082C25.8573 24.496 25.7979 24.5729 25.7368 24.6337L21.0413 19.9103C20.254 20.693 19.7431 21.6505 19.5005 22.6926L25.9871 24.203ZM25.7408 24.6296C25.6604 24.7099 25.5779 24.7668 25.5097 24.803C25.4443 24.8377 25.4099 24.8441 25.4262 24.8402L23.8762 18.3629C22.8608 18.6059 21.8623 19.0913 21.0372 19.9144L25.7408 24.6296ZM25.4262 24.8402C25.4543 24.8335 25.3439 24.8637 25.1496 24.8219L26.5508 18.3108C25.6181 18.1101 24.7084 18.1638 23.8762 18.3629L25.4262 24.8402ZM25.1768 24.8276C25.0998 24.8117 24.9986 24.7809 24.8858 24.7248C24.772 24.6683 24.6673 24.5964 24.5777 24.5157L29.0355 19.5673C28.3048 18.9091 27.4404 18.4943 26.5237 18.305L25.1768 24.8276ZM24.587 24.524C24.4842 24.4321 24.3977 24.3279 24.3304 24.2209C24.2643 24.1155 24.2282 24.0256 24.2098 23.9677L30.5585 21.9547C30.2783 21.071 29.7818 20.2346 29.0262 19.559L24.587 24.524ZM26.6092 19.7225L25.4154 20.0082L26.9653 26.4855L28.1591 26.1998L26.6092 19.7225ZM29.2285 21.8833C28.8433 21.0251 28.2052 20.29 27.341 19.7976L24.0441 25.5846C23.8529 25.4756 23.6668 25.3294 23.5033 25.1469C23.3409 24.9655 23.2276 24.7783 23.1522 24.6104L29.2285 21.8833ZM27.3787 19.8194C26.2651 19.1656 25.0858 19.1386 24.1346 19.3662L25.6845 25.8435C25.5279 25.881 25.2791 25.9168 24.9669 25.8824C24.6433 25.8468 24.3116 25.7419 24.0065 25.5628L27.3787 19.8194ZM24.1346 19.3662C23.2579 19.576 22.4237 20.0398 21.7732 20.7879L26.7994 25.1578C26.4692 25.5375 26.0506 25.756 25.6845 25.8435L24.1346 19.3662ZM21.7906 20.7681C21.1498 21.4935 20.8218 22.3312 20.6902 23.1185L27.2592 24.2167C27.2216 24.4416 27.1013 24.8162 26.782 25.1777L21.7906 20.7681ZM20.6861 23.1436C20.5557 23.9618 20.638 24.7343 20.7969 25.3983L27.2742 23.8484C27.2625 23.7994 27.3042 23.9346 27.2633 24.1916L20.6861 23.1436ZM20.7969 25.3983C20.9561 26.0633 21.2305 26.7866 21.7098 27.4558L27.1246 23.5781C27.2679 23.7781 27.2879 23.9056 27.2742 23.8484L20.7969 25.3983ZM21.7158 27.4642C22.1773 28.1044 22.8315 28.705 23.7116 29.0759L26.2986 22.9387C26.7297 23.1205 26.9921 23.3941 27.1186 23.5696L21.7158 27.4642ZM23.7533 29.0932C24.6839 29.4707 25.6416 29.498 26.5093 29.2904L24.9594 22.8131C25.3073 22.7298 25.7788 22.7276 26.2569 22.9215L23.7533 29.0932ZM26.5093 29.2904C27.1045 29.1479 27.7285 28.8785 28.2951 28.421L24.1109 23.2393C24.4206 22.9892 24.7322 22.8674 24.9594 22.8131L26.5093 29.2904ZM28.3123 28.407C28.8648 27.9547 29.2875 27.3845 29.5619 26.741L23.4355 24.1285C23.5759 23.7991 23.8014 23.4925 24.0937 23.2532L28.3123 28.407ZM29.5619 26.741C29.8552 26.053 29.9399 25.365 29.9126 24.7516L23.259 25.0475C23.2495 24.8334 23.2761 24.5023 23.4355 24.1285L29.5619 26.741ZM27.3608 28.1382L28.5546 27.8525L27.0046 21.3752L25.8108 21.6609L27.3608 28.1382ZM24.4896 25.1289C24.4811 25.0746 24.4743 24.9905 24.4835 24.884C24.4928 24.7762 24.5168 24.6642 24.5561 24.5558L30.8179 26.8246C31.1464 25.9179 31.2088 24.9876 31.0696 24.0988L24.4896 25.1289ZM24.5603 24.5444C24.6023 24.4298 24.6611 24.3181 24.7335 24.2169C24.8053 24.1167 24.8778 24.0445 24.9347 23.9969L29.2034 29.1092C29.9124 28.5173 30.4774 27.7537 30.8137 26.8361L24.5603 24.5444ZM24.9491 23.985C25.1244 23.8403 25.2461 23.8205 25.1926 23.8334L26.7425 30.3107C27.5769 30.111 28.4329 29.7454 29.189 29.1212L24.9491 23.985ZM30.1537 25.7201L29.1972 28.9099C29.2047 28.9121 29.2122 28.9143 29.2197 28.9165L30.1537 25.7201ZM29.0408 24.9869L26.5002 27.1399L26.5051 27.1456L29.0408 24.9869ZM28.3514 22.1059L25.1114 21.3364L25.1097 21.3435L28.3514 22.1059ZM28.9966 20.9302L31.3507 23.2855C31.3542 23.282 31.3577 23.2785 31.3612 23.275L28.9966 20.9302ZM31.1973 20.2029L30.8146 23.5109C30.8251 23.5122 30.8356 23.5133 30.8461 23.5144L31.1973 20.2029ZM32.0857 20.501L30.3733 23.3571C30.3782 23.36 30.3831 23.3629 30.388 23.3658L32.0857 20.501ZM32.8169 21.2088L30.0663 23.086L30.0706 23.0923L32.8169 21.2088ZM33.389 22.7463L34.164 25.9849C35.9527 25.5569 37.0557 23.76 36.6277 21.9713L33.389 22.7463ZM29.0452 23.7857L25.8065 24.5607C26.2345 26.3494 28.0315 27.4524 29.8201 27.0244L29.0452 23.7857ZM28.8437 22.9439L28.0687 19.7052C26.2801 20.1332 25.177 21.9302 25.605 23.7189L28.8437 22.9439ZM31.9903 22.1909L32.7653 25.4296C33.6297 25.2227 34.3755 24.679 34.8368 23.9193C35.298 23.1597 35.4365 22.2471 35.2214 21.3848L31.9903 22.1909ZM31.6823 21.5898L29.195 23.8039C29.1988 23.8082 29.2026 23.8124 29.2064 23.8167L31.6823 21.5898ZM31.1515 21.2462L30.1437 24.4202C30.1497 24.4221 30.1556 24.4239 30.1616 24.4258L31.1515 21.2462ZM29.8565 21.5816L32.2401 23.9071C32.2467 23.9004 32.2532 23.8936 32.2597 23.8868L29.8565 21.5816ZM29.5201 22.1728L26.3023 21.3153L26.2988 21.3287L29.5201 22.1728ZM29.514 22.8637L26.2679 23.6072C26.2703 23.6177 26.2728 23.6282 26.2753 23.6387L29.514 22.8637ZM30.0488 24.3517L27.5165 26.5144C27.5195 26.518 27.5226 26.5215 27.5257 26.5251L30.0488 24.3517ZM30.642 24.7424L29.6886 27.9331C29.6977 27.9358 29.7068 27.9384 29.7159 27.9411L30.642 24.7424ZM31.8693 24.5508L33.655 27.3617C33.668 27.3534 33.681 27.345 33.6939 27.3366L31.8693 24.5508ZM32.1969 24.228L34.9761 26.0627L32.1969 24.228ZM32.3519 23.7933L31.9436 20.4884C30.4231 20.6762 29.2269 21.8773 29.0453 23.3986L32.3519 23.7933ZM33.5495 23.6454L36.8796 23.6438C36.8791 22.6898 36.4695 21.7817 35.7545 21.15C35.0396 20.5182 34.088 20.2234 33.1412 20.3404L33.5495 23.6454ZM33.3217 24.5535L30.396 22.963L30.3951 22.9646L33.3217 24.5535ZM32.6622 25.2731L34.5574 28.0113C34.5631 28.0073 34.5688 28.0034 34.5744 27.9994L32.6622 25.2731ZM30.8346 22.4833C30.7927 22.4933 30.8011 22.4867 30.8513 22.4867C30.9043 22.4868 30.9875 22.4944 31.0876 22.5237L29.2197 28.9165C30.3142 29.2363 31.3991 29.1964 32.3846 28.9606L30.8346 22.4833ZM31.1102 22.5304C31.1928 22.5551 31.2868 22.5966 31.3793 22.6575C31.4712 22.7181 31.5363 22.7811 31.5764 22.8282L26.5051 27.1456C27.2132 27.9773 28.1269 28.5889 29.1972 28.9099L31.1102 22.5304ZM31.5813 22.834C31.6031 22.8597 31.6197 22.8829 31.6316 22.9014C31.6434 22.9199 31.6496 22.9322 31.6516 22.9363C31.6553 22.9442 31.6412 22.917 31.623 22.8406L25.1456 24.3905C25.3748 25.3481 25.7945 26.3071 26.5002 27.1399L31.5813 22.834ZM31.623 22.8406C31.6067 22.7726 31.6073 22.7466 31.6075 22.7567C31.6076 22.7617 31.6076 22.7748 31.6056 22.7947C31.6036 22.8148 31.5997 22.8397 31.593 22.8684L25.1097 21.3435C24.8624 22.3951 24.9163 23.4321 25.1456 24.3905L31.623 22.8406ZM31.5913 22.8755C31.582 22.9146 31.5602 22.9831 31.5148 23.0659C31.4687 23.1498 31.4113 23.2249 31.3507 23.2855L26.6424 18.5749C25.8617 19.3552 25.3561 20.3062 25.1114 21.3364L31.5913 22.8755ZM31.3612 23.275C31.2808 23.356 31.1957 23.4162 31.1208 23.4564C31.0484 23.4953 31.0049 23.5053 31.0096 23.5041L29.4596 17.0268C28.4416 17.2704 27.449 17.7615 26.632 18.5854L31.3612 23.275ZM31.0096 23.5041C30.9974 23.507 30.9723 23.5119 30.9362 23.5143C30.8998 23.5167 30.8584 23.516 30.8146 23.5109L31.5799 16.8949C30.8556 16.8111 30.1427 16.8634 29.4596 17.0268L31.0096 23.5041ZM30.8461 23.5144C30.6777 23.4966 30.5098 23.4389 30.3733 23.3571L33.7981 17.645C33.1108 17.2328 32.3506 16.9765 31.5485 16.8914L30.8461 23.5144ZM30.388 23.3658C30.1874 23.2469 30.0893 23.1197 30.0663 23.086L35.5675 19.3317C35.125 18.6833 34.5395 18.0843 33.7835 17.6362L30.388 23.3658ZM30.0706 23.0923C30.0301 23.0332 30.0167 22.9992 30.0195 23.0059C30.0225 23.0131 30.0386 23.0539 30.0587 23.1383L36.536 21.5883C36.3563 20.8373 36.0593 20.0489 35.5632 19.3254L30.0706 23.0923ZM30.0587 23.1383L30.1504 23.5213L36.6277 21.9713L36.536 21.5883L30.0587 23.1383ZM32.6141 19.5076L28.2702 20.5471L29.8201 27.0244L34.164 25.9849L32.6141 19.5076ZM32.2838 23.0108L32.0824 22.1689L25.605 23.7189L25.8065 24.5607L32.2838 23.0108ZM29.6187 26.1825L32.7653 25.4296L31.2154 18.9523L28.0687 19.7052L29.6187 26.1825ZM35.2214 21.3848C35.0472 20.6866 34.7127 19.9792 34.1583 19.3629L29.2064 23.8167C28.9436 23.5245 28.8144 23.2179 28.7593 22.997L35.2214 21.3848ZM34.1697 19.3756C33.6264 18.7652 32.934 18.3134 32.1413 18.0667L30.1616 24.4258C29.7841 24.3083 29.4456 24.0855 29.195 23.8039L34.1697 19.3756ZM32.1592 18.0723C31.2983 17.799 30.4527 17.8179 29.7097 17.9957L31.2597 24.473C30.9952 24.5363 30.594 24.5631 30.1437 24.4202L32.1592 18.0723ZM29.7097 17.9957C28.9051 18.1882 28.1072 18.5947 27.4533 19.2764L32.2597 23.8868C31.9328 24.2277 31.5537 24.4026 31.2597 24.473L29.7097 17.9957ZM27.4729 19.2562C26.9111 19.8319 26.5105 20.5339 26.3023 21.3153L32.7379 23.0303C32.6501 23.3598 32.4737 23.6676 32.2401 23.9071L27.4729 19.2562ZM26.2988 21.3287C26.0965 22.1005 26.1006 22.8766 26.2679 23.6072L32.76 22.1202C32.8186 22.3759 32.8267 22.6914 32.7414 23.017L26.2988 21.3287ZM26.2753 23.6387L26.4512 24.3736L32.9285 22.8237L32.7526 22.0887L26.2753 23.6387ZM26.4512 24.3736C26.6182 25.0717 26.936 25.8347 27.5165 26.5144L32.5811 22.1891C32.8304 22.4811 32.9089 22.742 32.9285 22.8237L26.4512 24.3736ZM27.5257 26.5251C28.0838 27.173 28.8166 27.6725 29.6886 27.9331L31.5954 21.5517C32.0064 21.6745 32.3438 21.9136 32.5719 22.1784L27.5257 26.5251ZM29.7159 27.9411C30.5857 28.1929 31.4305 28.1602 32.169 27.9835L30.6191 21.5062C30.8147 21.4593 31.1582 21.425 31.5681 21.5437L29.7159 27.9411ZM32.169 27.9835C32.6503 27.8683 33.1618 27.675 33.655 27.3617L30.0836 21.74C30.3065 21.5984 30.5012 21.5344 30.6191 21.5062L32.169 27.9835ZM33.6939 27.3366C34.1863 27.014 34.6282 26.5896 34.9761 26.0627L29.4178 22.3934C29.5979 22.1206 29.8213 21.9114 30.0446 21.7651L33.6939 27.3366ZM34.9761 26.0627C35.3668 25.4707 35.5824 24.8252 35.6585 24.1881L29.0453 23.3986C29.0825 23.0869 29.1948 22.7312 29.4178 22.3934L34.9761 26.0627ZM32.7602 27.0983L33.9578 26.9503L33.1412 20.3404L31.9436 20.4884L32.7602 27.0983ZM30.2194 23.6469C30.2193 23.4306 30.2758 23.1841 30.396 22.963L36.2474 26.144C36.6716 25.3637 36.88 24.5119 36.8796 23.6438L30.2194 23.6469ZM30.3951 22.9646C30.5193 22.7359 30.6702 22.6027 30.75 22.5467L34.5744 27.9994C35.2331 27.5374 35.8237 26.9245 36.2483 26.1423L30.3951 22.9646ZM30.767 22.5348C30.8767 22.4589 30.9236 22.462 30.8346 22.4833L32.3846 28.9606C33.1191 28.7848 33.8677 28.4886 34.5574 28.0113L30.767 22.5348Z" fill="white" mask="url(#path-2-outside-1_67_886)"/>
</svg>
