<svg width="40" height="40" viewBox="0 0 40 40" fill="none" xmlns="http://www.w3.org/2000/svg">
<path fill-rule="evenodd" clip-rule="evenodd" d="M30.4687 0C36.25 0 40 3.75 40 9.53127V30.4687C40 36.25 36.25 40 30.4687 40H9.53127C3.75 40 0 36.25 0 30.4687V9.53127C0 3.75 3.75 0 9.53127 0H30.4687Z" fill="#252525"/>
<g clip-path="url(#clip0_67_624)">
<path d="M15.4435 33.3335C17.8957 33.3335 19.8879 31.3435 19.8879 28.889V24.4446H15.4435C12.9912 24.4446 10.999 26.4346 10.999 28.889C10.999 31.3435 12.9912 33.3335 15.4435 33.3335Z" fill="#0ACF83"/>
<path d="M10.999 20.0001C10.999 17.5479 12.9912 15.5557 15.4435 15.5557H19.8879V24.4446H15.4435C12.9912 24.4446 10.999 22.4545 10.999 20.0001Z" fill="#A259FF"/>
<path d="M10.999 11.1112C10.999 8.65894 12.9912 6.66675 15.4435 6.66675H19.8879V15.5556H15.4435C12.9912 15.5556 10.999 13.5656 10.999 11.1112Z" fill="#F24E1E"/>
<path d="M19.8887 6.66675H24.3331C26.7854 6.66675 28.7776 8.65894 28.7776 11.1112C28.7776 13.5656 26.7875 15.5556 24.3331 15.5556H19.8887V6.66675Z" fill="#FF7262"/>
<path d="M28.7776 20.0001C28.7776 22.4545 26.7875 24.4446 24.3331 24.4446C21.8787 24.4446 19.8887 22.4545 19.8887 20.0001C19.8887 17.5479 21.8787 15.5557 24.3331 15.5557C26.7875 15.5557 28.7776 17.5479 28.7776 20.0001Z" fill="#1ABCFE"/>
</g>
<defs>
<clipPath id="clip0_67_624">
<rect x="10.999" y="6.66675" width="17.7778" height="26.6667" rx="8" fill="white"/>
</clipPath>
</defs>
</svg>
