<svg width="40" height="40" viewBox="0 0 40 40" fill="none" xmlns="http://www.w3.org/2000/svg">
<path fill-rule="evenodd" clip-rule="evenodd" d="M30.4687 0C36.25 0 40 3.75 40 9.53127V30.4687C40 36.25 36.25 40 30.4687 40H9.53127C3.75 40 0 36.25 0 30.4687V9.53127C0 3.75 3.75 0 9.53127 0H30.4687Z" fill="white"/>
<path d="M21.9639 20.0831L24.7398 23.2552L28.4726 25.6395L29.1237 20.1039L28.4726 14.6888L24.6679 16.7835L21.9639 20.0831Z" fill="#188038"/>
<path d="M5.85645 25.1253V29.8429C5.85645 30.9227 6.72999 31.7962 7.80976 31.7962H12.5274L13.5029 28.2302L12.5274 25.1253L9.29039 24.1498L5.85645 25.1253Z" fill="#1967D2"/>
<path d="M12.5274 8.3678L5.85645 15.0387L9.29039 16.0142L12.5274 15.0387L13.4867 11.9755L12.5274 8.3678Z" fill="#EA4335"/>
<path d="M5.85645 25.1254H12.5274V15.0391H5.85645V25.1254Z" fill="#4285F4"/>
<path d="M32.7335 11.1921L28.4723 14.6886V25.6392L32.752 29.1496C33.3938 29.6501 34.33 29.1937 34.33 28.3804V11.9475C34.33 11.1226 33.3707 10.6707 32.7335 11.1921ZM21.9636 20.0828V25.1272H12.5283V31.7981H26.5213C27.6011 31.7981 28.4746 30.9245 28.4746 29.8448V25.6392L21.9636 20.0828Z" fill="#34A853"/>
<path d="M26.5213 8.3678H12.5283V15.0387H21.9659V20.0831L28.4723 14.6889V10.3211C28.4723 9.24135 27.5988 8.3678 26.5213 8.3678Z" fill="#FBBC04"/>
</svg>
