<svg width="40" height="40" viewBox="0 0 40 40" fill="none" xmlns="http://www.w3.org/2000/svg">
<path fill-rule="evenodd" clip-rule="evenodd" d="M30.4687 0C36.25 0 40 3.75 40 9.53127V30.4687C40 36.25 36.25 40 30.4687 40H9.53127C3.75 40 0 36.25 0 30.4687V9.53127C0 3.75 3.75 0 9.53127 0H30.4687Z" fill="white"/>
<path fill-rule="evenodd" clip-rule="evenodd" d="M23.7243 8.05456L10.444 9.03535C9.37281 9.12815 9 9.82814 9 10.6673V25.2256C9 25.8792 9.23201 26.4383 9.79202 27.1855L12.9137 31.2447C13.4265 31.8983 13.8929 32.0383 14.8721 31.9919L30.2941 31.0583C31.5981 30.9655 31.9717 30.3583 31.9717 29.3319V12.9537C31.9717 12.4233 31.7621 12.2705 31.1453 11.8177C31.1098 11.7922 31.0743 11.7666 31.0389 11.7409L26.8004 8.75455C25.7748 8.00896 25.3556 7.91456 23.7243 8.05456ZM15.2209 12.6857C13.9617 12.7705 13.6761 12.7897 12.9609 12.2081L11.1424 10.7617C10.9576 10.5745 11.0504 10.3409 11.5161 10.2945L24.2827 9.36175C25.3548 9.26815 25.9132 9.64174 26.3324 9.96814L28.522 11.5545C28.6156 11.6017 28.8484 11.8809 28.5684 11.8809L15.3841 12.6745L15.2209 12.6857ZM13.7529 29.1919V15.2881C13.7529 14.6809 13.9393 14.4009 14.4977 14.3537L29.6404 13.4673C30.1541 13.4209 30.3861 13.7473 30.3861 14.3537V28.1647C30.3861 28.7719 30.2925 29.2855 29.454 29.3319L14.9633 30.1719C14.1249 30.2183 13.7529 29.9391 13.7529 29.1919ZM28.0572 16.0337C28.15 16.4537 28.0572 16.8737 27.6372 16.9217L26.9388 17.0601V27.3255C26.3324 27.6519 25.774 27.8383 25.3076 27.8383C24.5619 27.8383 24.3755 27.6047 23.8171 26.9055L19.2498 19.72V26.6719L20.6947 26.9991C20.6947 26.9991 20.6947 27.8391 19.529 27.8391L16.3154 28.0255C16.2218 27.8383 16.3154 27.3719 16.641 27.2791L17.4802 27.0463V17.8544L16.3154 17.76C16.2218 17.3401 16.4546 16.7337 17.1074 16.6865L20.5555 16.4545L25.3076 23.7328V17.2937L24.0963 17.1545C24.0027 16.6401 24.3755 16.2665 24.8411 16.2209L28.0572 16.0337Z" fill="black"/>
</svg>
