<svg width="40" height="40" viewBox="0 0 40 40" fill="none" xmlns="http://www.w3.org/2000/svg">
<g clip-path="url(#clip0_67_626)">
<path d="M32.917 0H7.08301C3.17117 0 0 3.25246 0 7.26457V32.7354C0 36.7475 3.17117 40 7.08301 40H32.917C36.8288 40 40 36.7475 40 32.7354V7.26457C40 3.25246 36.8288 0 32.917 0Z" fill="#001E36"/>
<path d="M9.00684 28.0506V10.4639C9.00684 10.3365 9.05999 10.2715 9.16785 10.2715C9.45314 10.2715 9.71498 10.2715 10.1058 10.2579C10.4966 10.2443 10.9241 10.2395 11.3806 10.2307L12.8297 10.2026C13.3393 10.1935 13.8445 10.189 14.3453 10.189C15.7048 10.189 16.8511 10.3632 17.7844 10.7116C18.6234 11.0033 19.3886 11.4828 20.0245 12.1153C20.5638 12.6639 20.9803 13.3261 21.2454 14.0561C21.4961 14.767 21.6229 15.5176 21.6198 16.2735C21.6198 17.7421 21.2889 18.9532 20.6271 19.9066C19.9607 20.8641 19.0242 21.5893 17.9438 21.9845C16.8167 22.4158 15.5638 22.5617 14.1866 22.5617C13.7958 22.5617 13.516 22.5576 13.355 22.548C13.194 22.5384 12.9524 22.5344 12.6304 22.5344V28.0249C12.6345 28.0534 12.633 28.0824 12.6261 28.1104C12.6192 28.1383 12.6069 28.1645 12.5901 28.1875C12.5732 28.2106 12.5521 28.2299 12.5279 28.2445C12.5037 28.2591 12.4769 28.2687 12.4491 28.2726C12.4291 28.2758 12.4088 28.2758 12.3889 28.2726H9.19442C9.06624 28.2702 9.00684 28.1973 9.00684 28.0506ZM12.6304 13.5743V19.3102C12.8628 19.3289 13.0775 19.3379 13.2745 19.3374H14.16C14.8117 19.3351 15.459 19.2291 16.0789 19.0232C16.6103 18.8619 17.0854 18.5475 17.4475 18.1173C17.7961 17.6956 17.9704 17.1078 17.9704 16.3537C17.9839 15.8212 17.8483 15.2959 17.5796 14.8401C17.298 14.3993 16.8908 14.0581 16.4134 13.8629C15.7912 13.6151 15.1266 13.4981 14.4594 13.519C14.0295 13.519 13.6494 13.5236 13.319 13.5327C12.9887 13.5417 12.7604 13.5556 12.6343 13.5743H12.6304Z" fill="#31A8FF"/>
<path d="M31.9962 18.2673C31.4919 18.0012 30.9547 17.8068 30.3993 17.6893C29.7876 17.5451 29.1621 17.4712 28.5344 17.4688C28.195 17.4595 27.856 17.5014 27.5284 17.5931C27.3197 17.6405 27.1341 17.7624 27.0048 17.937C26.9173 18.0767 26.8709 18.2392 26.8711 18.4052C26.8758 18.5661 26.9325 18.7209 27.0321 18.8453C27.1888 19.0334 27.3803 19.1876 27.5957 19.299C27.978 19.5096 28.3721 19.697 28.7759 19.8602C29.6765 20.1695 30.5371 20.59 31.3388 21.1123C31.8845 21.4662 32.3361 21.9531 32.6535 22.5297C32.921 23.0765 33.0551 23.6816 33.0443 24.2933C33.0602 25.0999 32.8355 25.8923 32.4003 26.5644C31.934 27.2461 31.2867 27.7762 30.5353 28.0915C29.7193 28.4592 28.7121 28.643 27.5136 28.643C26.7526 28.6503 25.993 28.5764 25.2469 28.4226C24.6589 28.312 24.0866 28.127 23.543 27.8719C23.4842 27.8409 23.4352 27.7934 23.4018 27.7349C23.3685 27.6764 23.3521 27.6093 23.3546 27.5416V24.5699C23.3512 24.5407 23.3557 24.5112 23.3676 24.4845C23.3794 24.4577 23.3982 24.4349 23.4218 24.4183C23.4449 24.4049 23.4714 24.3989 23.4978 24.4014C23.5242 24.4038 23.5492 24.4145 23.5696 24.432C24.2121 24.8205 24.9099 25.1037 25.6377 25.2713C26.2787 25.4363 26.9364 25.524 27.5972 25.5326C28.2225 25.5326 28.6832 25.4501 28.9791 25.2849C29.1124 25.2223 29.2251 25.1215 29.3036 24.9946C29.3821 24.8677 29.4231 24.7201 29.4215 24.5699C29.4215 24.331 29.2873 24.1014 29.019 23.8812C28.7506 23.661 28.2045 23.3965 27.3807 23.0876C26.5382 22.7869 25.7394 22.3702 25.0062 21.849C24.4818 21.4754 24.0498 20.9813 23.7446 20.4061C23.4802 19.8639 23.3462 19.2647 23.3538 18.6585C23.3515 17.9283 23.5469 17.2117 23.9182 16.5886C24.34 15.904 24.9459 15.3592 25.6627 15.0198C26.4496 14.6163 27.4334 14.4145 28.6141 14.4145C29.3058 14.4086 29.9968 14.459 30.6807 14.5652C31.1758 14.6305 31.6597 14.7654 32.1189 14.9661C32.1553 14.9768 32.1889 14.9961 32.2168 15.0224C32.2447 15.0487 32.2663 15.0813 32.2799 15.1176C32.2981 15.1847 32.307 15.254 32.3065 15.3236V18.1037C32.3086 18.1359 32.3026 18.168 32.2888 18.197C32.2751 18.226 32.2543 18.2507 32.2283 18.2689C32.1921 18.2871 32.1523 18.2964 32.1121 18.2961C32.0718 18.2958 32.0321 18.2859 31.9962 18.2673Z" fill="#31A8FF"/>
</g>
<defs>
<clipPath id="clip0_67_626">
<rect width="40" height="40" fill="white"/>
</clipPath>
</defs>
</svg>
